<svg width="28" height="27" viewBox="0 0 28 27" fill="none" xmlns="http://www.w3.org/2000/svg">
<path d="M14 26.8299C21.2995 26.8299 27.217 20.9167 27.217 13.6225C27.217 6.3282 21.2995 0.415039 14 0.415039C6.70051 0.415039 0.783081 6.3282 0.783081 13.6225C0.783081 20.9167 6.70051 26.8299 14 26.8299Z" fill="#B7B5B8"/>
<path d="M18.6466 19.6257C20.4005 19.6257 21.8223 18.2049 21.8223 16.4522C21.8223 14.6996 20.4005 13.2788 18.6466 13.2788C16.8926 13.2788 15.4708 14.6996 15.4708 16.4522C15.4708 18.2049 16.8926 19.6257 18.6466 19.6257Z" fill="white"/>
<path d="M9.46698 19.6257C11.2209 19.6257 12.6427 18.2049 12.6427 16.4522C12.6427 14.6996 11.2209 13.2788 9.46698 13.2788C7.71308 13.2788 6.29126 14.6996 6.29126 16.4522C6.29126 18.2049 7.71308 19.6257 9.46698 19.6257Z" fill="white"/>
<path d="M13.9909 11.4326C15.7448 11.4326 17.1666 10.0118 17.1666 8.25913C17.1666 6.50649 15.7448 5.08569 13.9909 5.08569C12.237 5.08569 10.8152 6.50649 10.8152 8.25913C10.8152 10.0118 12.237 11.4326 13.9909 11.4326Z" fill="white"/>
</svg>
