<svg width="130" height="35" viewBox="0 0 130 35" fill="none" xmlns="http://www.w3.org/2000/svg">
<rect width="130" height="35" fill="url(#paint0_linear_2007_521)"/>
<rect class="logo-hover" width="130" height="35" fill="#FC0842"/>
<path d="M18 9.50574C13.582 9.50574 10 13.0852 10 17.5C10 21.9148 13.582 25.4942 18 25.4942C22.418 25.4942 26 21.9148 26 17.5C26 13.0852 22.418 9.50574 18 9.50574ZM15.2562 21.1347C14.1943 21.1347 13.334 20.275 13.334 19.2139C13.334 18.1528 14.1943 17.2931 15.2562 17.2931C16.3181 17.2931 17.1784 18.1528 17.1784 19.2139C17.1784 20.275 16.3181 21.1347 15.2562 21.1347ZM17.9945 16.1755C16.9326 16.1755 16.0722 15.3158 16.0722 14.2547C16.0722 13.1936 16.9326 12.3339 17.9945 12.3339C19.0563 12.3339 19.9167 13.1936 19.9167 14.2547C19.9167 15.3158 19.0563 16.1755 17.9945 16.1755ZM20.8125 21.1347C19.7506 21.1347 18.8902 20.275 18.8902 19.2139C18.8902 18.1528 19.7506 17.2931 20.8125 17.2931C21.8743 17.2931 22.7347 18.1528 22.7347 19.2139C22.7347 20.275 21.8743 21.1347 20.8125 21.1347Z" fill="white"/>
<path d="M32.9644 20.056V18.04H35.1404C35.8124 18.04 36.3138 17.9013 36.6444 17.624C36.9751 17.3467 37.1404 16.8827 37.1404 16.232C37.1404 15.6453 36.9858 15.2027 36.6764 14.904C36.3778 14.6053 35.9084 14.456 35.2684 14.456H32.9644V12.44H35.3804C36.0204 12.44 36.6071 12.52 37.1404 12.68C37.6844 12.8293 38.1538 13.0587 38.5484 13.368C38.9431 13.6773 39.2471 14.072 39.4604 14.552C39.6738 15.032 39.7804 15.5973 39.7804 16.248C39.7804 17.0907 39.5884 17.7947 39.2044 18.36C38.8311 18.9253 38.2764 19.352 37.5404 19.64C36.8151 19.9173 35.9138 20.056 34.8364 20.056H32.9644ZM31.0444 23V12.44H33.6364V23H31.0444ZM40.9332 23V11.624H43.4932V23H40.9332ZM47.1851 23.224C46.7371 23.224 46.3264 23.1387 45.9531 22.968C45.5797 22.7973 45.2811 22.5413 45.0571 22.2C44.8331 21.848 44.7211 21.4053 44.7211 20.872C44.7211 20.3707 44.8171 19.96 45.0091 19.64C45.2117 19.32 45.4837 19.064 45.8251 18.872C46.1771 18.68 46.5824 18.5307 47.0411 18.424C47.5104 18.3067 48.0064 18.2053 48.5291 18.12C48.9557 18.0453 49.2864 17.9813 49.5211 17.928C49.7664 17.864 49.9371 17.784 50.0331 17.688C50.1397 17.592 50.1931 17.4533 50.1931 17.272C50.1931 16.984 50.0864 16.7547 49.8731 16.584C49.6704 16.4027 49.3664 16.312 48.9611 16.312C48.6944 16.312 48.4384 16.36 48.1931 16.456C47.9584 16.552 47.7611 16.7067 47.6011 16.92C47.4411 17.1333 47.3397 17.4107 47.2971 17.752L45.0091 17.304C45.0837 16.7493 45.2384 16.2853 45.4731 15.912C45.7077 15.528 46.0117 15.2187 46.3851 14.984C46.7584 14.7493 47.1691 14.584 47.6171 14.488C48.0757 14.3813 48.5504 14.328 49.0411 14.328C49.8944 14.328 50.5877 14.4773 51.1211 14.776C51.6651 15.064 52.0651 15.496 52.3211 16.072C52.5877 16.648 52.7211 17.3733 52.7211 18.248V19.64C52.7211 20.0133 52.7264 20.3867 52.7371 20.76C52.7477 21.1333 52.7584 21.5067 52.7691 21.88C52.7904 22.2533 52.8117 22.6267 52.8331 23H50.5771C50.5557 22.6907 50.5291 22.3547 50.4971 21.992C50.4757 21.6293 50.4597 21.2453 50.4491 20.84H50.2251C50.1291 21.288 49.9424 21.6933 49.6651 22.056C49.3877 22.408 49.0357 22.6907 48.6091 22.904C48.1931 23.1173 47.7184 23.224 47.1851 23.224ZM48.3051 21.368C48.4971 21.368 48.6944 21.336 48.8971 21.272C49.0997 21.1973 49.2917 21.0907 49.4731 20.952C49.6544 20.8133 49.8144 20.632 49.9531 20.408C50.0917 20.184 50.1824 19.9173 50.2251 19.608L50.2091 18.744L50.5931 18.76C50.4331 18.8987 50.2411 19.0053 50.0171 19.08C49.8037 19.1547 49.5691 19.2187 49.3131 19.272C49.0677 19.3147 48.8224 19.3627 48.5771 19.416C48.3317 19.4587 48.1077 19.5173 47.9051 19.592C47.7131 19.6667 47.5584 19.7733 47.4411 19.912C47.3237 20.04 47.2651 20.216 47.2651 20.44C47.2651 20.728 47.3611 20.9573 47.5531 21.128C47.7557 21.288 48.0064 21.368 48.3051 21.368ZM57.8133 23.224C57.248 23.224 56.7306 23.1707 56.2613 23.064C55.792 22.9573 55.3813 22.7973 55.0293 22.584C54.6773 22.3707 54.4 22.0987 54.1973 21.768C53.9946 21.4267 53.8773 21.0373 53.8453 20.6L55.9253 20.04C55.968 20.296 56.0693 20.5253 56.2293 20.728C56.4 20.9307 56.624 21.0907 56.9013 21.208C57.1893 21.3147 57.536 21.368 57.9413 21.368C58.336 21.368 58.6506 21.3093 58.8853 21.192C59.1306 21.0747 59.2533 20.8933 59.2533 20.648C59.2533 20.488 59.1946 20.36 59.0773 20.264C58.96 20.168 58.7733 20.0827 58.5173 20.008C58.272 19.9227 57.9466 19.8373 57.5413 19.752C57.072 19.6453 56.624 19.528 56.1973 19.4C55.7813 19.272 55.4026 19.112 55.0613 18.92C54.72 18.728 54.448 18.4773 54.2453 18.168C54.0533 17.8587 53.9573 17.4747 53.9573 17.016C53.9573 16.4613 54.1066 15.9867 54.4053 15.592C54.704 15.1973 55.1253 14.888 55.6693 14.664C56.224 14.44 56.88 14.328 57.6373 14.328C58.32 14.328 58.9333 14.424 59.4773 14.616C60.032 14.808 60.48 15.1013 60.8213 15.496C61.1626 15.88 61.3546 16.3707 61.3973 16.968L59.2693 17.464C59.2586 17.1973 59.1786 16.968 59.0293 16.776C58.8906 16.584 58.6986 16.44 58.4533 16.344C58.2186 16.2373 57.9306 16.184 57.5893 16.184C57.2053 16.184 56.9013 16.2533 56.6773 16.392C56.464 16.52 56.3573 16.6853 56.3573 16.888C56.3573 17.0587 56.4266 17.2027 56.5653 17.32C56.7146 17.4267 56.9226 17.5173 57.1893 17.592C57.4666 17.6667 57.808 17.752 58.2133 17.848C58.6186 17.9227 59.0186 18.0187 59.4133 18.136C59.8186 18.2533 60.192 18.408 60.5333 18.6C60.8746 18.792 61.1466 19.0427 61.3493 19.352C61.552 19.6613 61.6533 20.0613 61.6533 20.552C61.6533 21.096 61.504 21.5707 61.2053 21.976C60.9066 22.3707 60.4746 22.68 59.9093 22.904C59.344 23.1173 58.6453 23.224 57.8133 23.224ZM66.1518 23.208C65.1598 23.208 64.4238 22.9467 63.9438 22.424C63.4745 21.9013 63.2398 21.08 63.2398 19.96V16.568H62.1518L62.1678 14.728H62.6798C63.1705 14.6853 63.5225 14.5627 63.7358 14.36C63.9598 14.1467 64.0931 13.8053 64.1358 13.336L64.2638 12.648H65.7358V14.552H67.7358V16.648H65.7358V19.8C65.7358 20.184 65.8265 20.4613 66.0078 20.632C66.1998 20.8027 66.4665 20.888 66.8078 20.888C66.9785 20.888 67.1491 20.8667 67.3198 20.824C67.5011 20.7813 67.6505 20.7227 67.7678 20.648V22.968C67.4371 23.0747 67.1331 23.1387 66.8558 23.16C66.5891 23.192 66.3545 23.208 66.1518 23.208ZM69.0426 23V14.552H71.6186V23H69.0426ZM70.3226 13.624C69.8319 13.624 69.4532 13.5227 69.1866 13.32C68.9306 13.1067 68.8026 12.8027 68.8026 12.408C68.8026 12.0027 68.9306 11.6987 69.1866 11.496C69.4532 11.2827 69.8319 11.176 70.3226 11.176C70.8239 11.176 71.2026 11.2827 71.4586 11.496C71.7252 11.7093 71.8586 12.0133 71.8586 12.408C71.8586 12.792 71.7252 13.0907 71.4586 13.304C71.2026 13.5173 70.8239 13.624 70.3226 13.624ZM77.2617 23.224C76.515 23.224 75.8644 23.1173 75.3097 22.904C74.7657 22.6907 74.3124 22.3867 73.9497 21.992C73.587 21.5973 73.315 21.1387 73.1337 20.616C72.9524 20.0827 72.8617 19.5067 72.8617 18.888C72.8617 18.2373 72.9524 17.64 73.1337 17.096C73.315 16.552 73.587 16.072 73.9497 15.656C74.3124 15.2293 74.7604 14.904 75.2937 14.68C75.8377 14.4453 76.4724 14.328 77.1977 14.328C77.987 14.328 78.643 14.4667 79.1657 14.744C79.699 15.0107 80.1044 15.3787 80.3817 15.848C80.659 16.3067 80.8137 16.8187 80.8457 17.384L78.5257 17.912C78.515 17.5493 78.4457 17.2507 78.3177 17.016C78.2004 16.7813 78.035 16.6107 77.8217 16.504C77.6084 16.3867 77.3684 16.328 77.1017 16.328C76.835 16.328 76.6004 16.3813 76.3977 16.488C76.2057 16.584 76.0404 16.7387 75.9017 16.952C75.763 17.1547 75.6564 17.4053 75.5817 17.704C75.507 18.0027 75.4697 18.3547 75.4697 18.76C75.4697 19.3147 75.539 19.784 75.6777 20.168C75.8164 20.5413 76.019 20.8293 76.2857 21.032C76.5524 21.224 76.8884 21.32 77.2937 21.32C77.699 21.32 78.0084 21.2293 78.2217 21.048C78.4457 20.8667 78.6004 20.6427 78.6857 20.376C78.771 20.1093 78.8137 19.8427 78.8137 19.576L81.1177 19.912C81.1177 20.3387 81.0484 20.7547 80.9097 21.16C80.771 21.5547 80.5417 21.9067 80.2217 22.216C79.9124 22.5253 79.5124 22.7707 79.0217 22.952C78.531 23.1333 77.9444 23.224 77.2617 23.224ZM82.1519 23V17.88V14.552H84.2479L84.2639 17.464H84.5039C84.6213 16.7173 84.7973 16.12 85.0319 15.672C85.2666 15.2133 85.5599 14.8773 85.9119 14.664C86.2746 14.44 86.7013 14.328 87.1919 14.328C87.7039 14.328 88.1199 14.4453 88.4399 14.68C88.7706 14.9147 89.0213 15.2613 89.1919 15.72C89.3733 16.1787 89.4799 16.76 89.5119 17.464H89.7199C89.8479 16.7173 90.0399 16.1147 90.2959 15.656C90.5626 15.1973 90.8879 14.8613 91.2719 14.648C91.6559 14.4347 92.0879 14.328 92.5679 14.328C93.0266 14.328 93.4266 14.4187 93.7679 14.6C94.1093 14.7707 94.3919 15.032 94.6159 15.384C94.8506 15.7253 95.0213 16.1573 95.1279 16.68C95.2453 17.2027 95.3039 17.8107 95.3039 18.504V23H92.7119V18.776C92.7119 18.2853 92.6693 17.8747 92.5839 17.544C92.5093 17.2133 92.3866 16.968 92.2159 16.808C92.0559 16.6373 91.8426 16.552 91.5759 16.552C91.2559 16.552 90.9786 16.6747 90.7439 16.92C90.5093 17.1547 90.3226 17.496 90.1839 17.944C90.0559 18.3813 89.9919 18.9093 89.9919 19.528V23H87.4639V18.776C87.4639 18.264 87.4159 17.848 87.3199 17.528C87.2346 17.208 87.1066 16.968 86.9359 16.808C86.7653 16.6373 86.5466 16.552 86.2799 16.552C85.9813 16.552 85.7146 16.664 85.4799 16.888C85.2453 17.112 85.0586 17.448 84.9199 17.896C84.7919 18.3333 84.7279 18.8773 84.7279 19.528V23H82.1519ZM96.8394 23V14.552H99.4154V23H96.8394ZM98.1194 13.624C97.6288 13.624 97.2501 13.5227 96.9834 13.32C96.7274 13.1067 96.5994 12.8027 96.5994 12.408C96.5994 12.0027 96.7274 11.6987 96.9834 11.496C97.2501 11.2827 97.6288 11.176 98.1194 11.176C98.6208 11.176 98.9994 11.2827 99.2554 11.496C99.5221 11.7093 99.6554 12.0133 99.6554 12.408C99.6554 12.792 99.5221 13.0907 99.2554 13.304C98.9994 13.5173 98.6208 13.624 98.1194 13.624ZM101.043 23V18.056V14.552H103.155L103.187 17.464H103.427C103.523 16.76 103.688 16.1787 103.923 15.72C104.168 15.2507 104.488 14.904 104.883 14.68C105.277 14.4453 105.757 14.328 106.323 14.328C107.283 14.328 108.008 14.6587 108.499 15.32C108.989 15.9707 109.235 16.984 109.235 18.36V23H106.643V18.68C106.643 17.9333 106.536 17.384 106.323 17.032C106.109 16.68 105.779 16.504 105.331 16.504C104.968 16.504 104.659 16.6213 104.403 16.856C104.147 17.0907 103.949 17.432 103.811 17.88C103.683 18.328 103.619 18.8773 103.619 19.528V23H101.043ZM113.833 23.224C113.171 23.224 112.585 23.0533 112.073 22.712C111.561 22.36 111.161 21.8533 110.873 21.192C110.585 20.52 110.441 19.6987 110.441 18.728C110.441 17.8213 110.569 17.0427 110.825 16.392C111.081 15.7307 111.449 15.224 111.929 14.872C112.419 14.52 113.017 14.344 113.721 14.344C114.233 14.344 114.675 14.4453 115.049 14.648C115.422 14.84 115.731 15.144 115.977 15.56C116.222 15.9653 116.409 16.4827 116.537 17.112H116.825C116.75 16.7493 116.681 16.4027 116.617 16.072C116.563 15.7307 116.521 15.4107 116.489 15.112C116.457 14.8027 116.441 14.5253 116.441 14.28V11.624H119.033V19.368V23H116.857L116.841 20.456H116.601C116.483 21.0853 116.302 21.608 116.057 22.024C115.811 22.4293 115.502 22.7333 115.129 22.936C114.766 23.128 114.334 23.224 113.833 23.224ZM114.761 21.144C115.027 21.144 115.267 21.0853 115.481 20.968C115.694 20.8507 115.87 20.6907 116.009 20.488C116.158 20.2747 116.27 20.0347 116.345 19.768C116.419 19.4907 116.457 19.2027 116.457 18.904V18.664C116.457 18.408 116.425 18.168 116.361 17.944C116.307 17.72 116.227 17.5173 116.121 17.336C116.025 17.144 115.902 16.984 115.753 16.856C115.614 16.728 115.454 16.6267 115.273 16.552C115.091 16.4773 114.905 16.44 114.713 16.44C114.371 16.44 114.078 16.5467 113.833 16.76C113.598 16.9627 113.417 17.24 113.289 17.592C113.171 17.944 113.113 18.3493 113.113 18.808C113.113 19.256 113.177 19.6613 113.305 20.024C113.443 20.376 113.635 20.6533 113.881 20.856C114.126 21.048 114.419 21.144 114.761 21.144Z" fill="white"/>
<defs>
<linearGradient id="paint0_linear_2007_521" x1="2.19828e-07" y1="35.3341" x2="125.773" y2="46.4837" gradientUnits="userSpaceOnUse">
<stop stop-color="#FC0842"/>
<stop offset="1" stop-color="#FE608D"/>
</linearGradient>
</defs>
</svg>
