<svg width="80" height="80" viewBox="0 0 80 80" fill="none" xmlns="http://www.w3.org/2000/svg">
<rect width="80" height="80" fill="#434F4D"/>
<path d="M47.3687 33.1535V47.8465H45.7241V36.0491L40.2717 47.8465H38.6524L38.6018 47.72L33.2127 36.0365V47.8338H31.5681V33.1535H33.6681L33.7187 33.28L39.462 45.6969L45.256 33.1535H47.3687ZM29.3669 40.3103L29.3542 47.8465H27.7096L27.6717 46.1268C26.9886 46.6705 26.2422 47.1131 25.4452 47.4545C24.5596 47.8212 22.9657 48.2005 21.3717 48.2005C19.9801 48.2005 18.8163 47.9097 17.9813 47.3786C16.944 46.6958 16.4127 45.6716 16.4127 44.3313C16.4127 43.0668 16.8681 41.9921 17.7536 41.1702C19.5627 39.4884 22.6241 39.3241 23.8639 39.3367C24.003 39.3367 26.8873 39.3114 27.697 39.2988C27.6843 38.793 27.6717 38.4137 27.659 38.047C27.5072 35.5813 25.9765 34.4433 22.8139 34.4433C19.4867 34.4433 18.6771 36.6561 18.5506 37.0986L18.462 37.3895H16.7922L16.906 36.8963C17.0072 36.479 18.0066 32.8248 22.8139 32.8248C27.9247 32.8248 29.1645 35.6192 29.291 37.9585C29.3289 38.5148 29.3669 40.2345 29.3669 40.3103ZM24.1801 40.9299H23.8512C22.8139 40.9299 20.2331 41.069 18.8922 42.3208C18.3355 42.8392 18.0699 43.4841 18.0699 44.306C18.0699 45.09 18.3482 45.6463 18.9048 46.013C20.3976 46.974 23.5476 46.4935 24.8126 45.9624C25.9133 45.4819 26.8873 44.7738 27.697 43.8887C27.7096 42.7887 27.7223 41.7771 27.7096 40.892L24.1801 40.9299ZM71 52V23H8V58H71V51.3996H69.4819V56.5079H9.53072V24.4921H69.4819V52H71ZM60.5379 44.2048C59.5006 45.6969 57.9066 46.5694 56.1861 46.5694C53.15 46.5694 50.6831 43.8508 50.6831 40.5C50.6831 37.1492 53.15 34.4306 56.1861 34.4306C57.9066 34.4306 59.5006 35.3031 60.5379 36.7952H62.4355C61.1705 34.3295 58.8048 32.8121 56.1861 32.8121C52.2518 32.8121 49.0386 36.2641 49.0386 40.5C49.0386 44.7359 52.2518 48.1879 56.1861 48.1879C58.8048 48.1879 61.1831 46.6705 62.4355 44.2048H60.5379Z" fill="white"/>
</svg>
