<svg width="80" height="80" viewBox="0 0 80 80" fill="none" xmlns="http://www.w3.org/2000/svg">
<rect width="80" height="80" fill="white"/>
<path d="M17.2888 34.1049V37.4847H24.3862V44.5515H17.2888V52.9233H10V27H25.4926L25.9888 34.1049H17.2888Z" fill="#003998"/>
<path d="M46.7968 30.9848C49.2148 33.4691 50.4244 36.4672 50.4244 39.9798C50.4244 43.4924 49.2148 46.5285 46.7968 49.0128C44.3782 51.4964 41.4616 52.7385 38.0464 52.7385C34.6312 52.7385 31.6762 51.4964 29.2582 49.0128C26.8396 46.5285 25.6306 43.5177 25.6306 39.9798C25.6306 36.4418 26.8396 33.4691 29.2582 30.9848C31.6762 28.5006 34.606 27.2584 38.0464 27.2584C41.4868 27.2584 44.3788 28.5012 46.7968 30.9848ZM35.9518 45.1735C35.9518 45.7514 36.1636 46.2526 36.5878 46.6789C37.0114 47.1058 37.5226 47.319 38.1208 47.319C38.719 47.319 39.2242 47.1058 39.6352 46.6789C40.0468 46.2526 40.2526 45.7508 40.2526 45.1735V34.6731C40.2526 34.0711 40.0468 33.5572 39.6352 33.1303C39.2242 32.704 38.719 32.4902 38.1208 32.4902C37.5226 32.4902 37.0114 32.704 36.5878 33.1303C36.1636 33.5572 35.9518 34.0711 35.9518 34.6731V45.1735Z" fill="#003998"/>
<path d="M61.7956 53L58.1326 46.4325L54.5836 53H46.57L54.202 39.5583L46.99 27H55.2328L58.2472 32.6068L61.3 27H69.2752L62.2156 39.4816L70 53H61.7956Z" fill="#003998"/>
</svg>
