<?xml version="1.0" encoding="UTF-8" standalone="no"?>
<svg
   xmlns:dc="http://purl.org/dc/elements/1.1/"
   xmlns:cc="http://creativecommons.org/ns#"
   xmlns:rdf="http://www.w3.org/1999/02/22-rdf-syntax-ns#"
   xmlns:svg="http://www.w3.org/2000/svg"
   xmlns="http://www.w3.org/2000/svg"
   xmlns:sodipodi="http://sodipodi.sourceforge.net/DTD/sodipodi-0.dtd"
   xmlns:inkscape="http://www.inkscape.org/namespaces/inkscape"
   width="434"
   height="282.19467"
   viewBox="0 0 114.82916 74.664009"
   version="1.1"
   id="svg363"
   inkscape:version="1.0.1 (3bc2e813f5, 2020-09-07)"
   sodipodi:docname="New_York_State_wordmark.svg">
  <defs
     id="defs357">
    <clipPath
       clipPathUnits="userSpaceOnUse"
       id="clipPath204">
      <path
         d="m 372.24,170.867 h 288 v 174.146 h -288 z"
         id="path202" />
    </clipPath>
    <clipPath
       clipPathUnits="userSpaceOnUse"
       id="clipPath268">
      <path
         d="m 544.875,344.573 c -1.188,-0.147 -2.315,-0.285 -3.058,-0.289 v 0 c -2.757,-0.016 -5.526,-0.089 -8.306,-0.16 v 0 c -5.541,-0.139 -11.27,-0.285 -16.79,0.031 v 0 l -0.549,0.029 c -2.959,0.171 -4.445,0.258 -7.578,-0.918 v 0 c -2.369,-0.891 -4.909,-2.383 -6.857,-3.579 v 0 c -2.404,-1.484 -4.378,-3.339 -6.288,-5.133 v 0 c -0.398,-0.372 -0.795,-0.746 -1.197,-1.117 v 0 c -0.636,-0.585 -1.448,-1.231 -2.302,-1.911 v 0 c -2.581,-2.056 -5.505,-4.38 -6.701,-7.365 v 0 c -0.252,-0.619 -0.347,-1.337 -0.442,-2.028 v 0 c -0.047,-0.364 -0.122,-0.927 -0.206,-1.226 v 0 c -1.17,-0.819 -2.165,-1.74 -3.127,-2.63 v 0 c -0.429,-0.397 -0.868,-0.801 -1.336,-1.213 v 0 c -1.107,-0.968 -2.51,-1.717 -3.998,-2.505 v 0 c -1.066,-0.568 -2.172,-1.158 -3.216,-1.858 v 0 l -0.441,-0.285 c -1.225,-0.78 -2.903,-1.843 -3.446,-3.493 v 0 c -0.655,-1.986 0.524,-5.484 2.672,-6.47 v 0 c 1.338,-0.616 2.508,-0.165 3.239,0.183 v 0 c 0.056,-0.168 0.098,-0.348 0.1,-0.478 v 0 c 0.017,-0.673 -0.488,-1.37 -1.321,-2.435 v 0 c -1.063,-1.351 -2.387,-3.038 -2.233,-5.426 v 0 c 0.052,-0.844 0.317,-1.771 0.621,-2.845 v 0 c 0.434,-1.528 1.164,-4.085 0.335,-4.45 v 0 c -0.197,-0.084 -0.855,-0.053 -1.288,-0.03 v 0 c -1.247,0.061 -3.118,0.164 -4.528,-1.29 v 0 c -0.779,-0.791 -1.768,-1.435 -2.89,-2.133 v 0 l -0.438,-0.268 c -1.047,-0.642 -2.351,-1.433 -3.261,-2.673 v 0 c -0.212,-0.294 -0.38,-0.579 -0.536,-0.854 v 0 c -0.039,-0.067 -0.073,-0.133 -0.108,-0.194 v 0 c -0.495,-0.099 -0.982,-0.171 -1.47,-0.25 v 0 c -0.99,-0.148 -2.011,-0.303 -3.103,-0.64 v 0 c -0.491,-0.156 -0.996,-0.341 -1.512,-0.531 v 0 c -1.17,-0.427 -2.37,-0.866 -3.322,-0.832 v 0 c -0.851,0.033 -1.696,0.114 -2.537,0.194 v 0 c -1.868,0.18 -3.802,0.361 -5.865,0.089 v 0 c -1.265,-0.169 -2.307,-0.536 -3.222,-0.859 v 0 c -1.827,-0.651 -2.254,-0.755 -3.312,0.21 v 0 c -2.06,1.883 -3.409,2.401 -6.153,2.924 v 0 l -6.712,1.271 c -1.214,0.235 -2.313,0.015 -3.203,-0.162 v 0 c -0.59,-0.121 -1.1,-0.224 -1.474,-0.169 v 0 c -6.317,0.925 -13.239,-0.226 -21.784,-3.622 v 0 c -2.859,-1.133 -3.687,-2.283 -3.419,-4.742 v 0 c 0.065,-0.583 0.136,-1.239 0,-2.261 v 0 c -0.14,-1.013 -0.189,-2.303 0.675,-3.272 v 0 c 0.865,-0.977 2.012,-0.944 2.638,-0.948 v 0 c 0.196,0.004 0.462,0.007 0.537,-0.032 v 0 c 0.086,-0.045 0.13,-0.08 0.13,-0.08 v 0 c 0.09,-0.235 -0.062,-1.044 -0.146,-1.48 v 0 c -0.044,-0.256 -0.089,-0.503 -0.127,-0.741 v 0 c -0.364,-2.418 0.173,-3.583 0.803,-4.936 v 0 c 0.133,-0.291 0.285,-0.615 0.444,-0.993 v 0 c 0.337,-0.807 0.387,-0.932 -1.756,-2.143 v 0 c -0.935,-0.523 -1.998,-1.121 -2.838,-1.985 v 0 c -0.781,-0.801 -1.282,-1.718 -1.719,-2.528 v 0 c -0.408,-0.744 -0.752,-1.386 -1.217,-1.774 v 0 c -0.653,-0.55 -1.598,-1.049 -2.604,-1.577 v 0 c -1.166,-0.613 -2.37,-1.251 -3.429,-2.118 v 0 c -0.769,-0.629 -1.457,-1.305 -2.121,-1.959 v 0 c -0.889,-0.878 -1.724,-1.702 -2.652,-2.319 v 0 c -0.359,-0.235 -1.028,-0.531 -1.673,-0.816 v 0 c -1.728,-0.765 -3.686,-1.63 -4.693,-3.243 v 0 c -0.212,-0.343 -0.325,-0.739 -0.325,-1.141 v 0 l 0.007,-7.626 c 0.003,-1.433 0.166,-3.035 1.34,-4.085 v 0 c 1.214,-1.077 2.713,-0.906 4.038,-0.753 v 0 c 0.595,0.069 1.208,0.139 1.895,0.139 v 0 l 109.199,-0.085 c 3.306,0 6.488,-0.079 9.142,-0.997 v 0 c 0.356,-0.124 0.882,-0.719 1.225,-1.114 v 0 c 0.327,-0.367 0.619,-0.682 0.877,-0.899 v 0 c 0.837,-0.694 1.738,-1.06 2.529,-1.377 v 0 c 0.646,-0.261 1.2,-0.486 1.53,-0.819 v 0 c 0.7,-0.7 0.72,-1.794 0.703,-3.518 v 0 c -0.008,-0.564 -0.014,-1.123 0.016,-1.667 v 0 c 0.217,-4.165 1.86,-5.841 3.763,-7.785 v 0 c 0.254,-0.261 0.526,-0.533 0.802,-0.828 v 0 c 1.363,-1.435 3.075,-1.577 4.209,-1.67 v 0 c 0.245,-0.019 0.6,-0.045 0.738,-0.056 v 0 c 0.202,-0.317 0.492,-0.977 0.548,-1.251 v 0 c 0.381,-1.876 2.668,-3.186 6.115,-4.965 v 0 c 0.526,-0.275 0.967,-0.499 1.219,-0.651 v 0 l 1.098,-0.673 c 3.119,-1.911 6.242,-3.819 9.363,-5.727 v 0 c 0.495,-0.297 1.009,-0.571 1.53,-0.844 v 0 c 1.08,-0.569 2.096,-1.103 2.696,-1.848 v 0 c 0.196,-0.25 0.212,-0.27 0.11,-1.39 v 0 c -0.114,-1.252 -0.326,-2.531 -0.653,-3.915 v 0 c -0.04,-0.18 -0.093,-0.351 -0.146,-0.517 v 0 c -0.124,-0.392 -0.273,-0.882 -0.337,-1.461 v 0 c -0.086,-0.7 -0.141,-1.465 0.019,-2.355 v 0 c -0.225,-0.145 -0.492,-0.35 -0.754,-0.642 v 0 c -0.234,-0.262 -0.439,-0.555 -0.638,-0.848 v 0 l -0.198,-0.289 c -0.607,-0.87 -0.833,-1.821 -0.631,-2.671 v 0 c 0.173,-0.738 0.641,-1.346 1.315,-1.715 v 0 c 0.449,-0.245 0.911,-0.326 1.344,-0.326 v 0 c 0.624,0 1.199,0.176 1.609,0.303 v 0 l 0.174,0.048 c 1.426,0.318 2.868,0.594 4.302,0.858 v 0 l 1.654,0.301 c 2.356,0.426 4.795,0.867 7.191,1.426 v 0 c 0.699,0.164 1.581,0.463 2.607,0.811 v 0 c 1.3,0.448 4.011,1.369 4.707,1.286 v 0 c 1.626,-0.531 3.083,0.127 4.25,0.657 v 0 c 0.788,0.351 1.539,0.692 2.312,0.726 v 0 c 2.695,0.11 4.818,0.462 6.891,1.136 v 0 c 1.2,0.395 2.239,0.975 3.249,1.536 v 0 c 0.984,0.545 1.914,1.066 2.829,1.299 v 0 c 0.791,0.198 1.58,0.42 2.377,0.646 v 0 c 1.764,0.503 3.507,1.053 5.247,1.606 v 0 l 2.309,0.725 c 2.427,0.747 7.474,2.295 7.514,6.05 v 0 c 0.011,0.991 -0.658,1.86 -1.619,2.11 v 0 c -1.612,0.416 -3.193,0.245 -4.587,0.092 v 0 c -1.381,-0.146 -2.571,-0.274 -3.597,0.127 v 0 c -0.367,0.145 -0.582,0.305 -0.875,0.529 v 0 c -0.874,0.673 -1.893,1.31 -3.855,1.006 v 0 c -2.324,-0.351 -4.403,-1.087 -6.408,-1.802 v 0 c -2.534,-0.902 -4.927,-1.755 -7.611,-1.755 v 0 c -6.074,0 -10.79,-0.57 -15.278,-1.848 v 0 c -1.189,-0.336 -2.316,-0.698 -3.391,-1.086 v 0 c 0.055,0.184 0.099,0.379 0.132,0.582 v 0 c 0.213,1.348 -0.391,2.488 -0.894,3.343 v 0 c 3.848,2.131 5.305,3.2 5.637,4.617 v 0 c 0.159,0.674 0.028,1.378 -0.362,1.934 v 0 c -1.663,2.39 -1.144,6.572 -0.691,10.258 v 0 c 0.156,1.272 0.31,2.477 0.377,3.63 v 0 c 0.074,1.188 -0.83,2.213 -2.023,2.285 v 0 c -1.205,0.073 -2.215,-0.832 -2.283,-2.022 v 0 c -0.065,-1.019 -0.207,-2.156 -0.355,-3.362 v 0 c -0.48,-3.9 -1.023,-8.255 0.599,-11.795 v 0 c -1.088,-0.73 -2.877,-1.709 -3.582,-2.095 v 0 c -0.51,-0.274 -0.896,-0.492 -1.08,-0.606 v 0 c -0.479,-0.3 -0.823,-0.782 -0.956,-1.336 v 0 c -0.338,-1.435 0.377,-2.651 0.903,-3.538 v 0 c 0.131,-0.226 0.325,-0.55 0.411,-0.746 v 0 c -0.106,-0.226 -0.405,-0.509 -0.846,-0.91 v 0 c -0.445,-0.407 -0.942,-0.863 -1.372,-1.463 v 0 c -0.234,-0.32 -0.435,-0.65 -0.618,-0.998 v 0 c 0.114,1.261 0.202,2.688 -1.063,4.264 v 0 c -1.159,1.443 -2.696,2.255 -4.055,2.969 v 0 c -0.44,0.231 -0.875,0.461 -1.289,0.711 v 0 c -3.123,1.905 -6.238,3.815 -9.356,5.718 v 0 l -1.099,0.674 c -0.311,0.19 -0.848,0.474 -1.487,0.805 v 0 c -0.924,0.473 -3.285,1.697 -3.954,2.343 v 0 c -0.27,0.925 -0.995,2.702 -2.071,3.5 v 0 c -0.986,0.738 -2.109,0.828 -3.011,0.901 v 0 c -0.748,0.063 -1.213,0.113 -1.423,0.334 v 0 c -0.302,0.315 -0.584,0.607 -0.857,0.883 v 0 c -1.697,1.734 -2.4,2.449 -2.534,4.98 v 0 c -0.022,0.455 -0.019,0.922 -0.008,1.393 v 0 c 0.023,2.048 0.054,4.598 -1.956,6.614 v 0 c -0.953,0.963 -2.078,1.417 -2.979,1.783 v 0 c -0.573,0.232 -1.067,0.431 -1.379,0.688 v 0 c -0.121,0.104 -0.25,0.265 -0.4,0.436 v 0 c -0.647,0.735 -1.629,1.849 -3.063,2.338 v 0 c -3.274,1.138 -7.002,1.237 -10.544,1.237 v 0 l -109.203,0.083 c -0.933,0 -1.742,-0.094 -2.392,-0.167 v 0 c -0.167,-0.019 -0.362,-0.043 -0.543,-0.059 v 0 c -0.01,0.159 -0.017,0.363 -0.017,0.612 v 0 l -0.014,6.799 c 0.596,0.443 1.761,0.956 2.45,1.259 v 0 c 0.842,0.372 1.64,0.728 2.303,1.164 v 0 c 1.289,0.847 2.313,1.864 3.312,2.845 v 0 c 0.618,0.614 1.206,1.191 1.815,1.691 v 0 c 0.723,0.596 1.693,1.104 2.714,1.643 v 0 c 1.16,0.61 2.36,1.245 3.372,2.092 v 0 c 1.084,0.912 1.692,2.028 2.225,3.015 v 0 c 0.338,0.62 0.656,1.205 1.023,1.584 v 0 c 0.402,0.417 1.143,0.825 1.856,1.23 v 0 c 1.922,1.081 5.499,3.091 3.626,7.568 v 0 c -0.185,0.437 -0.355,0.811 -0.511,1.148 v 0 c -0.515,1.107 -0.621,1.339 -0.449,2.467 v 0 c 0.029,0.194 0.065,0.394 0.105,0.597 v 0 c 0.276,1.481 0.849,4.56 -2.218,6.175 v 0 c -0.54,0.282 -1.057,0.417 -1.515,0.48 v 0 c 0.102,1.179 0.015,2.037 -0.054,2.635 v 0 c 0.169,0.08 0.397,0.178 0.717,0.305 v 0 c 7.813,3.105 14.027,4.178 19.574,3.363 v 0 c 1.103,-0.152 2.118,0.044 2.933,0.205 v 0 c 0.623,0.125 1.159,0.23 1.557,0.156 v 0 l 6.709,-1.272 c 2.192,-0.414 2.726,-0.658 4.053,-1.868 v 0 c 3.005,-2.741 5.694,-1.79 7.661,-1.095 v 0 c 0.785,0.279 1.531,0.541 2.349,0.649 v 0 c 1.571,0.216 3.183,0.063 4.887,-0.103 v 0 c 0.922,-0.09 1.84,-0.175 2.772,-0.212 v 0 c 1.794,-0.081 3.489,0.548 4.983,1.095 v 0 c 0.446,0.166 0.888,0.325 1.306,0.459 v 0 c 0.78,0.24 1.604,0.366 2.472,0.498 v 0 c 0.609,0.093 1.217,0.189 1.832,0.319 v 0 c 1.777,0.367 2.45,1.554 2.85,2.259 v 0 c 0.079,0.14 0.162,0.293 0.265,0.434 v 0 c 0.401,0.548 1.227,1.052 2.026,1.538 v 0 l 0.477,0.292 c 1.309,0.818 2.577,1.644 3.642,2.747 v 0 c 0.188,0.082 0.857,0.051 1.26,0.028 v 0 c 0.947,-0.048 2.121,-0.11 3.254,0.389 v 0 c 4.275,1.875 2.847,6.891 2.08,9.587 v 0 c -0.207,0.73 -0.443,1.554 -0.468,1.932 v 0 c -0.044,0.712 0.477,1.409 1.322,2.491 v 0 c 1.027,1.303 2.307,2.932 2.246,5.213 v 0 c -0.051,1.915 -1.264,4.704 -3.788,4.918 v 0 c -0.888,0.07 -1.626,-0.239 -2.154,-0.492 v 0 c -0.124,0.283 -0.223,0.638 -0.247,0.883 v 0 c 0.318,0.363 1.215,0.929 1.62,1.188 v 0 c 0.194,0.126 0.379,0.24 0.535,0.347 v 0 c 0.859,0.579 1.819,1.089 2.837,1.629 v 0 c 1.639,0.869 3.334,1.771 4.812,3.07 v 0 c 0.497,0.435 0.968,0.866 1.423,1.291 v 0 c 0.952,0.88 1.852,1.716 2.854,2.39 v 0 c 1.412,0.942 1.644,2.673 1.829,4.062 v 0 c 0.04,0.332 0.111,0.832 0.166,0.989 v 0 c 0.773,1.929 3.221,3.877 5.386,5.6 v 0 c 0.916,0.73 1.78,1.419 2.538,2.113 v 0 c 0.415,0.382 0.821,0.766 1.229,1.148 v 0 c 1.835,1.721 3.563,3.348 5.595,4.599 v 0 c 1.644,1.015 4.065,2.446 6.111,3.215 v 0 c 2.276,0.858 3.024,0.814 5.807,0.652 v 0 l 0.559,-0.034 c 5.693,-0.325 11.512,-0.175 17.139,-0.029 v 0 c 2.75,0.068 5.497,0.137 8.226,0.152 v 0 c 0.992,0.008 2.238,0.161 3.562,0.323 v 0 c 2.272,0.285 6.508,0.805 7.598,-0.137 v 0 c 0.065,-0.05 0.174,-0.147 0.19,-0.487 v 0 c -0.025,-0.107 -0.191,-0.398 -0.3,-0.594 v 0 c -0.361,-0.648 -0.857,-1.537 -0.857,-2.719 v 0 c 0,-1.294 0.594,-2.17 0.944,-2.693 v 0 c 0.072,-0.113 0.157,-0.212 0.186,-0.213 v 0 c -0.094,-0.526 -0.251,-1.079 -0.407,-1.641 v 0 c -0.295,-1.064 -0.627,-2.275 -0.67,-3.468 v 0 c -0.041,-1.196 0.897,-2.19 2.087,-2.231 v 0 c 1.169,-0.067 2.19,0.892 2.23,2.085 v 0 c 0.021,0.685 0.271,1.59 0.514,2.465 v 0 c 0.19,0.691 0.378,1.375 0.494,2.017 v 0 c 0.302,1.673 -0.447,2.79 -0.852,3.392 v 0 c -0.082,0.125 -0.199,0.303 -0.209,0.267 v 0 c 0.022,0.109 0.195,0.428 0.314,0.637 v 0 c 0.364,0.656 0.861,1.551 0.835,2.742 v 0 c -0.034,1.512 -0.615,2.796 -1.678,3.711 v 0 c -1.421,1.227 -3.446,1.593 -5.648,1.593 v 0 c -1.729,0 -3.567,-0.227 -5.302,-0.44 m -1.191,-163.909 c 2.48,1.601 5.471,2.885 9.14,3.924 v 0 c 4.094,1.162 8.439,1.682 14.099,1.682 v 0 c 3.43,0 6.288,1.021 9.059,2.005 v 0 c 1.897,0.677 3.691,1.312 5.602,1.602 v 0 c 0.204,0.028 0.31,0.028 0.316,0.039 v 0 c 0.097,-0.054 0.179,-0.13 0.276,-0.202 v 0 c 0.391,-0.302 0.982,-0.758 1.926,-1.125 v 0 c 0.615,-0.241 1.223,-0.391 1.822,-0.475 v 0 l -1.575,-0.49 c -1.698,-0.542 -3.407,-1.082 -5.126,-1.575 v 0 c -0.749,-0.209 -1.503,-0.419 -2.252,-0.609 v 0 c -1.465,-0.372 -2.69,-1.056 -3.875,-1.711 v 0 c -0.867,-0.489 -1.683,-0.942 -2.489,-1.204 v 0 c -1.681,-0.55 -3.447,-0.835 -5.734,-0.93 v 0 c -1.605,-0.07 -2.877,-0.643 -3.898,-1.105 v 0 c -0.411,-0.184 -1.028,-0.462 -1.14,-0.485 v 0 c -1.709,0.559 -4.055,-0.153 -7.439,-1.305 v 0 c -0.878,-0.298 -1.709,-0.578 -2.19,-0.692 v 0 c -2.296,-0.535 -4.678,-0.967 -6.981,-1.384 v 0 l -1.673,-0.299 c -0.493,-0.092 -0.991,-0.187 -1.485,-0.282 v 0 c 0.143,0.55 0.178,1.22 0.009,2.026 v 0 c -0.063,0.296 -0.058,0.592 0.004,1.139 v 0 c 0.023,0.19 0.092,0.411 0.178,0.697 v 0 c 0.08,0.258 0.159,0.522 0.224,0.798 v 0 c 0.055,0.232 0.107,0.464 0.161,0.693 v 0 c 0.156,-0.278 0.38,-0.521 0.657,-0.709 v 0 c 0.367,-0.246 0.788,-0.369 1.21,-0.369 v 0 c 0.408,0 0.816,0.115 1.174,0.346"
         id="path266" />
    </clipPath>
    <clipPath
       clipPathUnits="userSpaceOnUse"
       id="clipPath278">
      <path
         d="M 682.45933,253.76224 478.50782,59.372181 285.26717,262.11774 489.21867,456.5078 Z"
         id="path276" />
    </clipPath>
    <linearGradient
       x1="0"
       y1="0"
       x2="1"
       y2="0"
       gradientUnits="userSpaceOnUse"
       gradientTransform="matrix(-154.96551,-147.70058,-147.70058,154.96551,582.14843,315.83701)"
       spreadMethod="pad"
       id="linearGradient284">
      <stop
         style="stop-opacity:1;stop-color:#27aae1"
         offset="0"
         id="stop280" />
      <stop
         style="stop-opacity:1;stop-color:#21409a"
         offset="1"
         id="stop282" />
    </linearGradient>
    <clipPath
       clipPathUnits="userSpaceOnUse"
       id="clipPath204-2">
      <path
         d="m 372.24,170.867 h 288 v 174.146 h -288 z"
         id="path202-6" />
    </clipPath>
    <clipPath
       clipPathUnits="userSpaceOnUse"
       id="clipPath268-5">
      <path
         d="m 544.875,344.573 c -1.188,-0.147 -2.315,-0.285 -3.058,-0.289 v 0 c -2.757,-0.016 -5.526,-0.089 -8.306,-0.16 v 0 c -5.541,-0.139 -11.27,-0.285 -16.79,0.031 v 0 l -0.549,0.029 c -2.959,0.171 -4.445,0.258 -7.578,-0.918 v 0 c -2.369,-0.891 -4.909,-2.383 -6.857,-3.579 v 0 c -2.404,-1.484 -4.378,-3.339 -6.288,-5.133 v 0 c -0.398,-0.372 -0.795,-0.746 -1.197,-1.117 v 0 c -0.636,-0.585 -1.448,-1.231 -2.302,-1.911 v 0 c -2.581,-2.056 -5.505,-4.38 -6.701,-7.365 v 0 c -0.252,-0.619 -0.347,-1.337 -0.442,-2.028 v 0 c -0.047,-0.364 -0.122,-0.927 -0.206,-1.226 v 0 c -1.17,-0.819 -2.165,-1.74 -3.127,-2.63 v 0 c -0.429,-0.397 -0.868,-0.801 -1.336,-1.213 v 0 c -1.107,-0.968 -2.51,-1.717 -3.998,-2.505 v 0 c -1.066,-0.568 -2.172,-1.158 -3.216,-1.858 v 0 l -0.441,-0.285 c -1.225,-0.78 -2.903,-1.843 -3.446,-3.493 v 0 c -0.655,-1.986 0.524,-5.484 2.672,-6.47 v 0 c 1.338,-0.616 2.508,-0.165 3.239,0.183 v 0 c 0.056,-0.168 0.098,-0.348 0.1,-0.478 v 0 c 0.017,-0.673 -0.488,-1.37 -1.321,-2.435 v 0 c -1.063,-1.351 -2.387,-3.038 -2.233,-5.426 v 0 c 0.052,-0.844 0.317,-1.771 0.621,-2.845 v 0 c 0.434,-1.528 1.164,-4.085 0.335,-4.45 v 0 c -0.197,-0.084 -0.855,-0.053 -1.288,-0.03 v 0 c -1.247,0.061 -3.118,0.164 -4.528,-1.29 v 0 c -0.779,-0.791 -1.768,-1.435 -2.89,-2.133 v 0 l -0.438,-0.268 c -1.047,-0.642 -2.351,-1.433 -3.261,-2.673 v 0 c -0.212,-0.294 -0.38,-0.579 -0.536,-0.854 v 0 c -0.039,-0.067 -0.073,-0.133 -0.108,-0.194 v 0 c -0.495,-0.099 -0.982,-0.171 -1.47,-0.25 v 0 c -0.99,-0.148 -2.011,-0.303 -3.103,-0.64 v 0 c -0.491,-0.156 -0.996,-0.341 -1.512,-0.531 v 0 c -1.17,-0.427 -2.37,-0.866 -3.322,-0.832 v 0 c -0.851,0.033 -1.696,0.114 -2.537,0.194 v 0 c -1.868,0.18 -3.802,0.361 -5.865,0.089 v 0 c -1.265,-0.169 -2.307,-0.536 -3.222,-0.859 v 0 c -1.827,-0.651 -2.254,-0.755 -3.312,0.21 v 0 c -2.06,1.883 -3.409,2.401 -6.153,2.924 v 0 l -6.712,1.271 c -1.214,0.235 -2.313,0.015 -3.203,-0.162 v 0 c -0.59,-0.121 -1.1,-0.224 -1.474,-0.169 v 0 c -6.317,0.925 -13.239,-0.226 -21.784,-3.622 v 0 c -2.859,-1.133 -3.687,-2.283 -3.419,-4.742 v 0 c 0.065,-0.583 0.136,-1.239 0,-2.261 v 0 c -0.14,-1.013 -0.189,-2.303 0.675,-3.272 v 0 c 0.865,-0.977 2.012,-0.944 2.638,-0.948 v 0 c 0.196,0.004 0.462,0.007 0.537,-0.032 v 0 c 0.086,-0.045 0.13,-0.08 0.13,-0.08 v 0 c 0.09,-0.235 -0.062,-1.044 -0.146,-1.48 v 0 c -0.044,-0.256 -0.089,-0.503 -0.127,-0.741 v 0 c -0.364,-2.418 0.173,-3.583 0.803,-4.936 v 0 c 0.133,-0.291 0.285,-0.615 0.444,-0.993 v 0 c 0.337,-0.807 0.387,-0.932 -1.756,-2.143 v 0 c -0.935,-0.523 -1.998,-1.121 -2.838,-1.985 v 0 c -0.781,-0.801 -1.282,-1.718 -1.719,-2.528 v 0 c -0.408,-0.744 -0.752,-1.386 -1.217,-1.774 v 0 c -0.653,-0.55 -1.598,-1.049 -2.604,-1.577 v 0 c -1.166,-0.613 -2.37,-1.251 -3.429,-2.118 v 0 c -0.769,-0.629 -1.457,-1.305 -2.121,-1.959 v 0 c -0.889,-0.878 -1.724,-1.702 -2.652,-2.319 v 0 c -0.359,-0.235 -1.028,-0.531 -1.673,-0.816 v 0 c -1.728,-0.765 -3.686,-1.63 -4.693,-3.243 v 0 c -0.212,-0.343 -0.325,-0.739 -0.325,-1.141 v 0 l 0.007,-7.626 c 0.003,-1.433 0.166,-3.035 1.34,-4.085 v 0 c 1.214,-1.077 2.713,-0.906 4.038,-0.753 v 0 c 0.595,0.069 1.208,0.139 1.895,0.139 v 0 l 109.199,-0.085 c 3.306,0 6.488,-0.079 9.142,-0.997 v 0 c 0.356,-0.124 0.882,-0.719 1.225,-1.114 v 0 c 0.327,-0.367 0.619,-0.682 0.877,-0.899 v 0 c 0.837,-0.694 1.738,-1.06 2.529,-1.377 v 0 c 0.646,-0.261 1.2,-0.486 1.53,-0.819 v 0 c 0.7,-0.7 0.72,-1.794 0.703,-3.518 v 0 c -0.008,-0.564 -0.014,-1.123 0.016,-1.667 v 0 c 0.217,-4.165 1.86,-5.841 3.763,-7.785 v 0 c 0.254,-0.261 0.526,-0.533 0.802,-0.828 v 0 c 1.363,-1.435 3.075,-1.577 4.209,-1.67 v 0 c 0.245,-0.019 0.6,-0.045 0.738,-0.056 v 0 c 0.202,-0.317 0.492,-0.977 0.548,-1.251 v 0 c 0.381,-1.876 2.668,-3.186 6.115,-4.965 v 0 c 0.526,-0.275 0.967,-0.499 1.219,-0.651 v 0 l 1.098,-0.673 c 3.119,-1.911 6.242,-3.819 9.363,-5.727 v 0 c 0.495,-0.297 1.009,-0.571 1.53,-0.844 v 0 c 1.08,-0.569 2.096,-1.103 2.696,-1.848 v 0 c 0.196,-0.25 0.212,-0.27 0.11,-1.39 v 0 c -0.114,-1.252 -0.326,-2.531 -0.653,-3.915 v 0 c -0.04,-0.18 -0.093,-0.351 -0.146,-0.517 v 0 c -0.124,-0.392 -0.273,-0.882 -0.337,-1.461 v 0 c -0.086,-0.7 -0.141,-1.465 0.019,-2.355 v 0 c -0.225,-0.145 -0.492,-0.35 -0.754,-0.642 v 0 c -0.234,-0.262 -0.439,-0.555 -0.638,-0.848 v 0 l -0.198,-0.289 c -0.607,-0.87 -0.833,-1.821 -0.631,-2.671 v 0 c 0.173,-0.738 0.641,-1.346 1.315,-1.715 v 0 c 0.449,-0.245 0.911,-0.326 1.344,-0.326 v 0 c 0.624,0 1.199,0.176 1.609,0.303 v 0 l 0.174,0.048 c 1.426,0.318 2.868,0.594 4.302,0.858 v 0 l 1.654,0.301 c 2.356,0.426 4.795,0.867 7.191,1.426 v 0 c 0.699,0.164 1.581,0.463 2.607,0.811 v 0 c 1.3,0.448 4.011,1.369 4.707,1.286 v 0 c 1.626,-0.531 3.083,0.127 4.25,0.657 v 0 c 0.788,0.351 1.539,0.692 2.312,0.726 v 0 c 2.695,0.11 4.818,0.462 6.891,1.136 v 0 c 1.2,0.395 2.239,0.975 3.249,1.536 v 0 c 0.984,0.545 1.914,1.066 2.829,1.299 v 0 c 0.791,0.198 1.58,0.42 2.377,0.646 v 0 c 1.764,0.503 3.507,1.053 5.247,1.606 v 0 l 2.309,0.725 c 2.427,0.747 7.474,2.295 7.514,6.05 v 0 c 0.011,0.991 -0.658,1.86 -1.619,2.11 v 0 c -1.612,0.416 -3.193,0.245 -4.587,0.092 v 0 c -1.381,-0.146 -2.571,-0.274 -3.597,0.127 v 0 c -0.367,0.145 -0.582,0.305 -0.875,0.529 v 0 c -0.874,0.673 -1.893,1.31 -3.855,1.006 v 0 c -2.324,-0.351 -4.403,-1.087 -6.408,-1.802 v 0 c -2.534,-0.902 -4.927,-1.755 -7.611,-1.755 v 0 c -6.074,0 -10.79,-0.57 -15.278,-1.848 v 0 c -1.189,-0.336 -2.316,-0.698 -3.391,-1.086 v 0 c 0.055,0.184 0.099,0.379 0.132,0.582 v 0 c 0.213,1.348 -0.391,2.488 -0.894,3.343 v 0 c 3.848,2.131 5.305,3.2 5.637,4.617 v 0 c 0.159,0.674 0.028,1.378 -0.362,1.934 v 0 c -1.663,2.39 -1.144,6.572 -0.691,10.258 v 0 c 0.156,1.272 0.31,2.477 0.377,3.63 v 0 c 0.074,1.188 -0.83,2.213 -2.023,2.285 v 0 c -1.205,0.073 -2.215,-0.832 -2.283,-2.022 v 0 c -0.065,-1.019 -0.207,-2.156 -0.355,-3.362 v 0 c -0.48,-3.9 -1.023,-8.255 0.599,-11.795 v 0 c -1.088,-0.73 -2.877,-1.709 -3.582,-2.095 v 0 c -0.51,-0.274 -0.896,-0.492 -1.08,-0.606 v 0 c -0.479,-0.3 -0.823,-0.782 -0.956,-1.336 v 0 c -0.338,-1.435 0.377,-2.651 0.903,-3.538 v 0 c 0.131,-0.226 0.325,-0.55 0.411,-0.746 v 0 c -0.106,-0.226 -0.405,-0.509 -0.846,-0.91 v 0 c -0.445,-0.407 -0.942,-0.863 -1.372,-1.463 v 0 c -0.234,-0.32 -0.435,-0.65 -0.618,-0.998 v 0 c 0.114,1.261 0.202,2.688 -1.063,4.264 v 0 c -1.159,1.443 -2.696,2.255 -4.055,2.969 v 0 c -0.44,0.231 -0.875,0.461 -1.289,0.711 v 0 c -3.123,1.905 -6.238,3.815 -9.356,5.718 v 0 l -1.099,0.674 c -0.311,0.19 -0.848,0.474 -1.487,0.805 v 0 c -0.924,0.473 -3.285,1.697 -3.954,2.343 v 0 c -0.27,0.925 -0.995,2.702 -2.071,3.5 v 0 c -0.986,0.738 -2.109,0.828 -3.011,0.901 v 0 c -0.748,0.063 -1.213,0.113 -1.423,0.334 v 0 c -0.302,0.315 -0.584,0.607 -0.857,0.883 v 0 c -1.697,1.734 -2.4,2.449 -2.534,4.98 v 0 c -0.022,0.455 -0.019,0.922 -0.008,1.393 v 0 c 0.023,2.048 0.054,4.598 -1.956,6.614 v 0 c -0.953,0.963 -2.078,1.417 -2.979,1.783 v 0 c -0.573,0.232 -1.067,0.431 -1.379,0.688 v 0 c -0.121,0.104 -0.25,0.265 -0.4,0.436 v 0 c -0.647,0.735 -1.629,1.849 -3.063,2.338 v 0 c -3.274,1.138 -7.002,1.237 -10.544,1.237 v 0 l -109.203,0.083 c -0.933,0 -1.742,-0.094 -2.392,-0.167 v 0 c -0.167,-0.019 -0.362,-0.043 -0.543,-0.059 v 0 c -0.01,0.159 -0.017,0.363 -0.017,0.612 v 0 l -0.014,6.799 c 0.596,0.443 1.761,0.956 2.45,1.259 v 0 c 0.842,0.372 1.64,0.728 2.303,1.164 v 0 c 1.289,0.847 2.313,1.864 3.312,2.845 v 0 c 0.618,0.614 1.206,1.191 1.815,1.691 v 0 c 0.723,0.596 1.693,1.104 2.714,1.643 v 0 c 1.16,0.61 2.36,1.245 3.372,2.092 v 0 c 1.084,0.912 1.692,2.028 2.225,3.015 v 0 c 0.338,0.62 0.656,1.205 1.023,1.584 v 0 c 0.402,0.417 1.143,0.825 1.856,1.23 v 0 c 1.922,1.081 5.499,3.091 3.626,7.568 v 0 c -0.185,0.437 -0.355,0.811 -0.511,1.148 v 0 c -0.515,1.107 -0.621,1.339 -0.449,2.467 v 0 c 0.029,0.194 0.065,0.394 0.105,0.597 v 0 c 0.276,1.481 0.849,4.56 -2.218,6.175 v 0 c -0.54,0.282 -1.057,0.417 -1.515,0.48 v 0 c 0.102,1.179 0.015,2.037 -0.054,2.635 v 0 c 0.169,0.08 0.397,0.178 0.717,0.305 v 0 c 7.813,3.105 14.027,4.178 19.574,3.363 v 0 c 1.103,-0.152 2.118,0.044 2.933,0.205 v 0 c 0.623,0.125 1.159,0.23 1.557,0.156 v 0 l 6.709,-1.272 c 2.192,-0.414 2.726,-0.658 4.053,-1.868 v 0 c 3.005,-2.741 5.694,-1.79 7.661,-1.095 v 0 c 0.785,0.279 1.531,0.541 2.349,0.649 v 0 c 1.571,0.216 3.183,0.063 4.887,-0.103 v 0 c 0.922,-0.09 1.84,-0.175 2.772,-0.212 v 0 c 1.794,-0.081 3.489,0.548 4.983,1.095 v 0 c 0.446,0.166 0.888,0.325 1.306,0.459 v 0 c 0.78,0.24 1.604,0.366 2.472,0.498 v 0 c 0.609,0.093 1.217,0.189 1.832,0.319 v 0 c 1.777,0.367 2.45,1.554 2.85,2.259 v 0 c 0.079,0.14 0.162,0.293 0.265,0.434 v 0 c 0.401,0.548 1.227,1.052 2.026,1.538 v 0 l 0.477,0.292 c 1.309,0.818 2.577,1.644 3.642,2.747 v 0 c 0.188,0.082 0.857,0.051 1.26,0.028 v 0 c 0.947,-0.048 2.121,-0.11 3.254,0.389 v 0 c 4.275,1.875 2.847,6.891 2.08,9.587 v 0 c -0.207,0.73 -0.443,1.554 -0.468,1.932 v 0 c -0.044,0.712 0.477,1.409 1.322,2.491 v 0 c 1.027,1.303 2.307,2.932 2.246,5.213 v 0 c -0.051,1.915 -1.264,4.704 -3.788,4.918 v 0 c -0.888,0.07 -1.626,-0.239 -2.154,-0.492 v 0 c -0.124,0.283 -0.223,0.638 -0.247,0.883 v 0 c 0.318,0.363 1.215,0.929 1.62,1.188 v 0 c 0.194,0.126 0.379,0.24 0.535,0.347 v 0 c 0.859,0.579 1.819,1.089 2.837,1.629 v 0 c 1.639,0.869 3.334,1.771 4.812,3.07 v 0 c 0.497,0.435 0.968,0.866 1.423,1.291 v 0 c 0.952,0.88 1.852,1.716 2.854,2.39 v 0 c 1.412,0.942 1.644,2.673 1.829,4.062 v 0 c 0.04,0.332 0.111,0.832 0.166,0.989 v 0 c 0.773,1.929 3.221,3.877 5.386,5.6 v 0 c 0.916,0.73 1.78,1.419 2.538,2.113 v 0 c 0.415,0.382 0.821,0.766 1.229,1.148 v 0 c 1.835,1.721 3.563,3.348 5.595,4.599 v 0 c 1.644,1.015 4.065,2.446 6.111,3.215 v 0 c 2.276,0.858 3.024,0.814 5.807,0.652 v 0 l 0.559,-0.034 c 5.693,-0.325 11.512,-0.175 17.139,-0.029 v 0 c 2.75,0.068 5.497,0.137 8.226,0.152 v 0 c 0.992,0.008 2.238,0.161 3.562,0.323 v 0 c 2.272,0.285 6.508,0.805 7.598,-0.137 v 0 c 0.065,-0.05 0.174,-0.147 0.19,-0.487 v 0 c -0.025,-0.107 -0.191,-0.398 -0.3,-0.594 v 0 c -0.361,-0.648 -0.857,-1.537 -0.857,-2.719 v 0 c 0,-1.294 0.594,-2.17 0.944,-2.693 v 0 c 0.072,-0.113 0.157,-0.212 0.186,-0.213 v 0 c -0.094,-0.526 -0.251,-1.079 -0.407,-1.641 v 0 c -0.295,-1.064 -0.627,-2.275 -0.67,-3.468 v 0 c -0.041,-1.196 0.897,-2.19 2.087,-2.231 v 0 c 1.169,-0.067 2.19,0.892 2.23,2.085 v 0 c 0.021,0.685 0.271,1.59 0.514,2.465 v 0 c 0.19,0.691 0.378,1.375 0.494,2.017 v 0 c 0.302,1.673 -0.447,2.79 -0.852,3.392 v 0 c -0.082,0.125 -0.199,0.303 -0.209,0.267 v 0 c 0.022,0.109 0.195,0.428 0.314,0.637 v 0 c 0.364,0.656 0.861,1.551 0.835,2.742 v 0 c -0.034,1.512 -0.615,2.796 -1.678,3.711 v 0 c -1.421,1.227 -3.446,1.593 -5.648,1.593 v 0 c -1.729,0 -3.567,-0.227 -5.302,-0.44 m -1.191,-163.909 c 2.48,1.601 5.471,2.885 9.14,3.924 v 0 c 4.094,1.162 8.439,1.682 14.099,1.682 v 0 c 3.43,0 6.288,1.021 9.059,2.005 v 0 c 1.897,0.677 3.691,1.312 5.602,1.602 v 0 c 0.204,0.028 0.31,0.028 0.316,0.039 v 0 c 0.097,-0.054 0.179,-0.13 0.276,-0.202 v 0 c 0.391,-0.302 0.982,-0.758 1.926,-1.125 v 0 c 0.615,-0.241 1.223,-0.391 1.822,-0.475 v 0 l -1.575,-0.49 c -1.698,-0.542 -3.407,-1.082 -5.126,-1.575 v 0 c -0.749,-0.209 -1.503,-0.419 -2.252,-0.609 v 0 c -1.465,-0.372 -2.69,-1.056 -3.875,-1.711 v 0 c -0.867,-0.489 -1.683,-0.942 -2.489,-1.204 v 0 c -1.681,-0.55 -3.447,-0.835 -5.734,-0.93 v 0 c -1.605,-0.07 -2.877,-0.643 -3.898,-1.105 v 0 c -0.411,-0.184 -1.028,-0.462 -1.14,-0.485 v 0 c -1.709,0.559 -4.055,-0.153 -7.439,-1.305 v 0 c -0.878,-0.298 -1.709,-0.578 -2.19,-0.692 v 0 c -2.296,-0.535 -4.678,-0.967 -6.981,-1.384 v 0 l -1.673,-0.299 c -0.493,-0.092 -0.991,-0.187 -1.485,-0.282 v 0 c 0.143,0.55 0.178,1.22 0.009,2.026 v 0 c -0.063,0.296 -0.058,0.592 0.004,1.139 v 0 c 0.023,0.19 0.092,0.411 0.178,0.697 v 0 c 0.08,0.258 0.159,0.522 0.224,0.798 v 0 c 0.055,0.232 0.107,0.464 0.161,0.693 v 0 c 0.156,-0.278 0.38,-0.521 0.657,-0.709 v 0 c 0.367,-0.246 0.788,-0.369 1.21,-0.369 v 0 c 0.408,0 0.816,0.115 1.174,0.346"
         id="path266-6" />
    </clipPath>
    <clipPath
       clipPathUnits="userSpaceOnUse"
       id="clipPath278-0">
      <path
         d="M 682.45933,253.76224 478.50782,59.372181 285.26717,262.11774 489.21867,456.5078 Z"
         id="path276-2" />
    </clipPath>
  </defs>
  <sodipodi:namedview
     id="base"
     pagecolor="#ffffff"
     bordercolor="#666666"
     borderopacity="1.0"
     inkscape:pageopacity="0.0"
     inkscape:pageshadow="2"
     inkscape:zoom="1"
     inkscape:cx="177"
     inkscape:cy="152.5259"
     inkscape:document-units="mm"
     inkscape:current-layer="layer1"
     inkscape:document-rotation="0"
     showgrid="false"
     units="px"
     fit-margin-top="25"
     fit-margin-left="25"
     lock-margins="true"
     fit-margin-right="25"
     fit-margin-bottom="25"
     inkscape:window-width="1267"
     inkscape:window-height="967"
     inkscape:window-x="130"
     inkscape:window-y="130"
     inkscape:window-maximized="0" />
  <metadata
     id="metadata360">
    <rdf:RDF>
      <cc:Work
         rdf:about="">
        <dc:format>image/svg+xml</dc:format>
        <dc:type
           rdf:resource="http://purl.org/dc/dcmitype/StillImage" />
        <dc:title></dc:title>
      </cc:Work>
    </rdf:RDF>
  </metadata>
  <g
     inkscape:label="Layer 1"
     inkscape:groupmode="layer"
     id="layer1"
     transform="translate(-59.002084,-107.81086)">
    <g
       id="g495"
       transform="matrix(0.35277777,0,0,-0.35277777,-65.70133,236.13836)">
      <g
         id="g198">
        <g
           id="g200"
           clip-path="url(#clipPath204-2)">
          <g
             id="g206"
             transform="translate(587.5531,181.0239)">
            <path
               d="M 0,0 C 0,0 -0.058,0.064 -0.058,0.226 -0.058,0.383 0,0.453 0,0.453 h 2.97 c 0,0 0.058,-0.07 0.058,-0.227 C 3.028,0.07 2.97,0 2.97,0 H 1.798 v -3.543 c 0,0 -0.087,-0.064 -0.307,-0.064 -0.226,0 -0.319,0.064 -0.319,0.064 V 0 Z"
               style="fill:#1c75bc;fill-opacity:1;fill-rule:nonzero;stroke:none"
               id="path208" />
          </g>
          <g
             id="g210"
             transform="translate(593.3316,177.6543)">
            <path
               d="m 0,0 c -0.046,-0.029 -0.128,-0.064 -0.261,-0.064 -0.093,0 -0.202,0.018 -0.25,0.064 l -0.904,2.274 c -0.052,0.121 -0.139,0.366 -0.145,0.4 0,-0.017 -0.023,-0.337 -0.035,-0.429 l -0.168,-2.419 c 0,0 -0.081,-0.063 -0.307,-0.063 -0.226,0 -0.32,0.063 -0.32,0.063 l 0.314,3.933 c 0,0 0.087,0.063 0.302,0.063 0.238,0 0.325,-0.063 0.325,-0.063 L -0.4,1.108 -0.261,0.673 c 0.006,0.017 0.098,0.307 0.145,0.435 l 1.05,2.651 c 0,0 0.093,0.063 0.331,0.063 0.209,0 0.295,-0.063 0.295,-0.063 l 0.314,-3.933 c 0,0 -0.093,-0.063 -0.319,-0.063 -0.221,0 -0.302,0.063 -0.302,0.063 L 1.079,2.25 1.044,2.68 c 0,-0.006 -0.098,-0.301 -0.139,-0.4 z"
               style="fill:#1c75bc;fill-opacity:1;fill-rule:nonzero;stroke:none"
               id="path212" />
          </g>
          <g
             id="g214"
             transform="translate(547.2268,321.2507)">
            <path
               d="m 0,0 10.231,-16.288 v 16.246 c 0,0 1.152,0.808 3.928,0.808 2.81,0 3.957,-0.808 3.957,-0.808 v -28.225 c 0,0 -1.107,-0.811 -3.919,-0.811 -2.728,0 -3.839,0.724 -3.839,0.724 L 0.086,-12.068 v -16.199 c 0,0 -1.153,-0.811 -3.967,-0.811 -2.73,0 -3.881,0.811 -3.881,0.811 v 28.225 c 0,0 1.071,0.808 3.926,0.808 C -1.11,0.766 0,0 0,0"
               style="fill:#f5aa1c;fill-opacity:1;fill-rule:nonzero;stroke:none"
               id="path216" />
          </g>
          <g
             id="g218"
             transform="translate(586.2326,305.1345)">
            <path
               d="M 0,0 H -7.459 V -7.207 H 3.326 c 0,0 0.811,-0.895 0.811,-2.853 0,-2.005 -0.811,-2.901 -0.811,-2.901 h -18.671 v 29.844 h 17.82 c 0,0 0.851,-0.898 0.851,-2.901 0,-1.961 -0.851,-2.897 -0.851,-2.897 H -7.459 V 5.796 H 0 C 0,5.796 0.81,4.859 0.81,2.898 0.81,0.853 0,0 0,0"
               style="fill:#f5aa1c;fill-opacity:1;fill-rule:nonzero;stroke:none"
               id="path220" />
          </g>
          <g
             id="g222"
             transform="translate(599.9594,292.9832)">
            <path
               d="m 0,0 -8.059,28.225 c 0,0 1.194,0.809 3.966,0.809 2.812,0 3.923,-0.809 3.923,-0.809 L 3.879,13.898 c 0.298,-1.065 0.427,-1.875 0.554,-2.347 0,0.132 0.216,1.324 0.471,2.305 l 3.535,14.369 c 0,0 1.363,0.809 3.286,0.809 1.831,0 3.113,-0.809 3.113,-0.809 l 3.367,-14.327 0.555,-2.347 c 0,0.387 0.256,1.453 0.51,2.305 l 4.179,14.369 c 0.041,0 1.15,0.809 3.879,0.809 2.771,0 3.965,-0.809 3.965,-0.809 L 23.107,0 c 0,0 -1.152,-0.767 -3.752,-0.81 -3.026,0 -4.091,0.81 -4.091,0.81 l -3.199,13.088 c -0.254,0.982 -0.428,2.046 -0.467,2.262 L 11.082,13.088 7.886,0 C 7.886,0 6.779,-0.81 3.965,-0.81 1.193,-0.81 0,0 0,0"
               style="fill:#f5aa1c;fill-opacity:1;fill-rule:nonzero;stroke:none"
               id="path224" />
          </g>
          <g
             id="g226"
             transform="translate(544.7526,284.158)">
            <path
               d="m 0,0 3.496,-6.138 c 1.195,-2.091 1.836,-4.435 1.92,-4.732 0.087,0.297 0.683,2.597 1.919,4.732 L 10.916,0 c 0,0 1.066,0.766 3.664,0.766 2.943,0 4.182,-0.979 4.182,-0.979 L 9.337,-16.498 v -11.765 c 0,0 -1.107,-0.813 -3.921,-0.813 -2.774,0 -3.879,0.813 -3.879,0.813 v 11.892 l -9.424,16.158 c 0,0 1.281,0.979 4.219,0.979 C -1.15,0.766 0,0 0,0"
               style="fill:#f5aa1c;fill-opacity:1;fill-rule:nonzero;stroke:none"
               id="path228" />
          </g>
          <g
             id="g230"
             transform="translate(577.7931,260.5418)">
            <path
               d="m 0,0 c 4.26,0 6.565,3.835 6.565,9.418 0,5.585 -2.305,9.466 -6.565,9.466 -4.263,0 -6.562,-3.881 -6.562,-9.466 C -6.562,3.835 -4.263,0 0,0 m 0,-5.759 c -10.062,0 -14.453,5.886 -14.453,15.177 0,9.296 4.391,15.264 14.453,15.264 10.02,0 14.451,-5.968 14.451,-15.264 C 14.451,0.127 10.02,-5.759 0,-5.759"
               style="fill:#f5aa1c;fill-opacity:1;fill-rule:nonzero;stroke:none"
               id="path232" />
          </g>
          <g
             id="g234"
             transform="translate(606.5703,279.4259)">
            <path
               d="m 0,0 c -1.28,0 -2.217,-0.256 -2.217,-0.256 v -7.417 h 2.129 c 3.109,0 4.307,2.172 4.307,3.835 C 4.219,-1.663 2.726,0 0,0 m -2.217,-23.531 c 0,0 -1.152,-0.813 -3.967,-0.813 -2.771,0 -3.88,0.813 -3.88,0.813 V 4.305 c 0,0 3.197,1.493 9.081,1.493 8.91,0 13.048,-3.41 13.048,-9.378 0,-5.886 -4.522,-8.267 -5.075,-8.316 l 6.905,-11.469 c -0.849,-0.551 -3.194,-0.979 -4.772,-0.979 -2.046,0 -3.666,0.725 -3.666,0.725 l -5.201,9.079 c -0.301,0.642 -0.726,1.111 -1.449,1.111 h -1.024 z"
               style="fill:#f5aa1c;fill-opacity:1;fill-rule:nonzero;stroke:none"
               id="path236" />
          </g>
          <g
             id="g238"
             transform="translate(650.6486,256.1061)">
            <path
               d="m 0,0 c 0,0 -2.002,-1.024 -5.242,-1.024 -2.773,0 -3.924,0.724 -3.924,0.724 L -19.268,13.43 V -0.211 c 0,0 -1.066,-0.813 -3.88,-0.813 -2.817,0 -3.965,0.813 -3.965,0.813 v 28.219 c 0,0 1.148,0.811 3.965,0.811 2.771,0 3.88,-0.811 3.88,-0.811 V 14.749 l 9.763,13.303 c 0,0 1.149,0.767 3.921,0.767 3.195,0 4.479,-1.063 4.479,-1.063 l -9.551,-13.007 z"
               style="fill:#f5aa1c;fill-opacity:1;fill-rule:nonzero;stroke:none"
               id="path240" />
          </g>
          <g
             id="g242"
             transform="translate(559.6782,245.7888)">
            <path
               d="m 0,0 c 0.551,-2.726 -0.899,-4.901 -2.52,-5.455 -1.578,1.061 -4.089,2.003 -6.732,2.003 -2.687,0 -4.18,-1.021 -4.18,-2.474 0,-1.364 1.236,-1.833 4.518,-2.902 l 4.094,-1.318 c 4.393,-1.449 7.119,-3.669 7.119,-8.355 0,-5.416 -3.58,-9.595 -12.278,-9.595 -6.097,0 -9.852,2.047 -11.215,3.411 -0.426,2.003 0.68,4.52 2.264,5.33 1.361,-1.025 5.412,-2.985 9.545,-2.985 2.474,0 3.841,0.893 3.841,2.517 0,1.149 -0.726,1.874 -2.431,2.431 l -6.861,2.084 c -3.672,1.154 -6.44,3.795 -6.44,8.104 0,6.141 4.177,9.548 11.891,9.548 C -4.48,2.344 -1.622,1.022 0,0"
               style="fill:#f5aa1c;fill-opacity:1;fill-rule:nonzero;stroke:none"
               id="path244" />
          </g>
          <g
             id="g246"
             transform="translate(564.1058,242.0369)">
            <path
               d="M 0,0 C 0,0 -0.811,0.852 -0.811,2.9 -0.811,4.86 0,5.8 0,5.8 h 23.151 c 0,0 0.812,-0.897 0.812,-2.9 0,-2.006 -0.812,-2.9 -0.812,-2.9 h -7.677 v -23.236 c 0,0 -1.105,-0.81 -3.876,-0.81 -2.858,0 -4.008,0.81 -4.008,0.81 L 7.59,0 Z"
               style="fill:#f5aa1c;fill-opacity:1;fill-rule:nonzero;stroke:none"
               id="path248" />
          </g>
          <g
             id="g250"
             transform="translate(597.0177,229.3755)">
            <path
               d="M 0,0 H 6.354 L 4.223,5.117 C 3.796,6.14 3.243,8.229 3.195,8.442 3.113,8.229 2.471,6.14 2.09,5.117 Z m 7.033,17.693 11.514,-28.136 c 0,0 -1.15,-0.942 -4.053,-0.942 -2.685,0 -3.747,0.769 -3.747,0.769 L 8.654,-5.712 H -2.301 l -1.965,-4.904 c 0,0 -1.105,-0.769 -3.747,-0.769 -2.899,0 -4.137,0.942 -4.137,0.942 l 11.513,28.136 c 0,0 1.063,0.768 3.832,0.768 2.776,0 3.838,-0.768 3.838,-0.768"
               style="fill:#f5aa1c;fill-opacity:1;fill-rule:nonzero;stroke:none"
               id="path252" />
          </g>
          <g
             id="g254"
             transform="translate(613.2168,242.0369)">
            <path
               d="M 0,0 C 0,0 -0.81,0.852 -0.81,2.9 -0.81,4.86 0,5.8 0,5.8 h 23.151 c 0,0 0.808,-0.897 0.808,-2.9 0,-2.006 -0.808,-2.9 -0.808,-2.9 h -7.678 v -23.236 c 0,0 -1.103,-0.81 -3.877,-0.81 -2.856,0 -4.007,0.81 -4.007,0.81 V 0 Z"
               style="fill:#f5aa1c;fill-opacity:1;fill-rule:nonzero;stroke:none"
               id="path256" />
          </g>
          <g
             id="g258"
             transform="translate(656.1055,230.9534)">
            <path
               d="M 0,0 H -7.461 V -7.206 H 3.324 c 0,0 0.811,-0.895 0.811,-2.855 0,-2.007 -0.811,-2.901 -0.811,-2.901 H -15.35 V 16.883 H 2.472 c 0,0 0.852,-0.897 0.852,-2.901 0,-1.959 -0.852,-2.898 -0.852,-2.898 H -7.461 V 5.798 H 0 C 0,5.798 0.809,4.856 0.809,2.895 0.809,0.853 0,0 0,0"
               style="fill:#f5aa1c;fill-opacity:1;fill-rule:nonzero;stroke:none"
               id="path260" />
          </g>
        </g>
      </g>
      <g
         id="g262">
        <g
           id="g264"
           clip-path="url(#clipPath268-5)">
          <g
             id="g270">
            <g
               id="g272">
              <g
                 id="g274"
                 clip-path="url(#clipPath278-0)">
                <path
                   d="m 544.875,344.573 c -1.188,-0.147 -2.315,-0.285 -3.058,-0.289 v 0 c -2.757,-0.016 -5.526,-0.089 -8.306,-0.16 v 0 c -5.541,-0.139 -11.27,-0.285 -16.79,0.031 v 0 l -0.549,0.029 c -2.959,0.171 -4.445,0.258 -7.578,-0.918 v 0 c -2.369,-0.891 -4.909,-2.383 -6.857,-3.579 v 0 c -2.404,-1.484 -4.378,-3.339 -6.288,-5.133 v 0 c -0.398,-0.372 -0.795,-0.746 -1.197,-1.117 v 0 c -0.636,-0.585 -1.448,-1.231 -2.302,-1.911 v 0 c -2.581,-2.056 -5.505,-4.38 -6.701,-7.365 v 0 c -0.252,-0.619 -0.347,-1.337 -0.442,-2.028 v 0 c -0.047,-0.364 -0.122,-0.927 -0.206,-1.226 v 0 c -1.17,-0.819 -2.165,-1.74 -3.127,-2.63 v 0 c -0.429,-0.397 -0.868,-0.801 -1.336,-1.213 v 0 c -1.107,-0.968 -2.51,-1.717 -3.998,-2.505 v 0 c -1.066,-0.568 -2.172,-1.158 -3.216,-1.858 v 0 l -0.441,-0.285 c -1.225,-0.78 -2.903,-1.843 -3.446,-3.493 v 0 c -0.655,-1.986 0.524,-5.484 2.672,-6.47 v 0 c 1.338,-0.616 2.508,-0.165 3.239,0.183 v 0 c 0.056,-0.168 0.098,-0.348 0.1,-0.478 v 0 c 0.017,-0.673 -0.488,-1.37 -1.321,-2.435 v 0 c -1.063,-1.351 -2.387,-3.038 -2.233,-5.426 v 0 c 0.052,-0.844 0.317,-1.771 0.621,-2.845 v 0 c 0.434,-1.528 1.164,-4.085 0.335,-4.45 v 0 c -0.197,-0.084 -0.855,-0.053 -1.288,-0.03 v 0 c -1.247,0.061 -3.118,0.164 -4.528,-1.29 v 0 c -0.779,-0.791 -1.768,-1.435 -2.89,-2.133 v 0 l -0.438,-0.268 c -1.047,-0.642 -2.351,-1.433 -3.261,-2.673 v 0 c -0.212,-0.294 -0.38,-0.579 -0.536,-0.854 v 0 c -0.039,-0.067 -0.073,-0.133 -0.108,-0.194 v 0 c -0.495,-0.099 -0.982,-0.171 -1.47,-0.25 v 0 c -0.99,-0.148 -2.011,-0.303 -3.103,-0.64 v 0 c -0.491,-0.156 -0.996,-0.341 -1.512,-0.531 v 0 c -1.17,-0.427 -2.37,-0.866 -3.322,-0.832 v 0 c -0.851,0.033 -1.696,0.114 -2.537,0.194 v 0 c -1.868,0.18 -3.802,0.361 -5.865,0.089 v 0 c -1.265,-0.169 -2.307,-0.536 -3.222,-0.859 v 0 c -1.827,-0.651 -2.254,-0.755 -3.312,0.21 v 0 c -2.06,1.883 -3.409,2.401 -6.153,2.924 v 0 l -6.712,1.271 c -1.214,0.235 -2.313,0.015 -3.203,-0.162 v 0 c -0.59,-0.121 -1.1,-0.224 -1.474,-0.169 v 0 c -6.317,0.925 -13.239,-0.226 -21.784,-3.622 v 0 c -2.859,-1.133 -3.687,-2.283 -3.419,-4.742 v 0 c 0.065,-0.583 0.136,-1.239 0,-2.261 v 0 c -0.14,-1.013 -0.189,-2.303 0.675,-3.272 v 0 c 0.865,-0.977 2.012,-0.944 2.638,-0.948 v 0 c 0.196,0.004 0.462,0.007 0.537,-0.032 v 0 c 0.086,-0.045 0.13,-0.08 0.13,-0.08 v 0 c 0.09,-0.235 -0.062,-1.044 -0.146,-1.48 v 0 c -0.044,-0.256 -0.089,-0.503 -0.127,-0.741 v 0 c -0.364,-2.418 0.173,-3.583 0.803,-4.936 v 0 c 0.133,-0.291 0.285,-0.615 0.444,-0.993 v 0 c 0.337,-0.807 0.387,-0.932 -1.756,-2.143 v 0 c -0.935,-0.523 -1.998,-1.121 -2.838,-1.985 v 0 c -0.781,-0.801 -1.282,-1.718 -1.719,-2.528 v 0 c -0.408,-0.744 -0.752,-1.386 -1.217,-1.774 v 0 c -0.653,-0.55 -1.598,-1.049 -2.604,-1.577 v 0 c -1.166,-0.613 -2.37,-1.251 -3.429,-2.118 v 0 c -0.769,-0.629 -1.457,-1.305 -2.121,-1.959 v 0 c -0.889,-0.878 -1.724,-1.702 -2.652,-2.319 v 0 c -0.359,-0.235 -1.028,-0.531 -1.673,-0.816 v 0 c -1.728,-0.765 -3.686,-1.63 -4.693,-3.243 v 0 c -0.212,-0.343 -0.325,-0.739 -0.325,-1.141 v 0 l 0.007,-7.626 c 0.003,-1.433 0.166,-3.035 1.34,-4.085 v 0 c 1.214,-1.077 2.713,-0.906 4.038,-0.753 v 0 c 0.595,0.069 1.208,0.139 1.895,0.139 v 0 l 109.199,-0.085 c 3.306,0 6.488,-0.079 9.142,-0.997 v 0 c 0.356,-0.124 0.882,-0.719 1.225,-1.114 v 0 c 0.327,-0.367 0.619,-0.682 0.877,-0.899 v 0 c 0.837,-0.694 1.738,-1.06 2.529,-1.377 v 0 c 0.646,-0.261 1.2,-0.486 1.53,-0.819 v 0 c 0.7,-0.7 0.72,-1.794 0.703,-3.518 v 0 c -0.008,-0.564 -0.014,-1.123 0.016,-1.667 v 0 c 0.217,-4.165 1.86,-5.841 3.763,-7.785 v 0 c 0.254,-0.261 0.526,-0.533 0.802,-0.828 v 0 c 1.363,-1.435 3.075,-1.577 4.209,-1.67 v 0 c 0.245,-0.019 0.6,-0.045 0.738,-0.056 v 0 c 0.202,-0.317 0.492,-0.977 0.548,-1.251 v 0 c 0.381,-1.876 2.668,-3.186 6.115,-4.965 v 0 c 0.526,-0.275 0.967,-0.499 1.219,-0.651 v 0 l 1.098,-0.673 c 3.119,-1.911 6.242,-3.819 9.363,-5.727 v 0 c 0.495,-0.297 1.009,-0.571 1.53,-0.844 v 0 c 1.08,-0.569 2.096,-1.103 2.696,-1.848 v 0 c 0.196,-0.25 0.212,-0.27 0.11,-1.39 v 0 c -0.114,-1.252 -0.326,-2.531 -0.653,-3.915 v 0 c -0.04,-0.18 -0.093,-0.351 -0.146,-0.517 v 0 c -0.124,-0.392 -0.273,-0.882 -0.337,-1.461 v 0 c -0.086,-0.7 -0.141,-1.465 0.019,-2.355 v 0 c -0.225,-0.145 -0.492,-0.35 -0.754,-0.642 v 0 c -0.234,-0.262 -0.439,-0.555 -0.638,-0.848 v 0 l -0.198,-0.289 c -0.607,-0.87 -0.833,-1.821 -0.631,-2.671 v 0 c 0.173,-0.738 0.641,-1.346 1.315,-1.715 v 0 c 0.449,-0.245 0.911,-0.326 1.344,-0.326 v 0 c 0.624,0 1.199,0.176 1.609,0.303 v 0 l 0.174,0.048 c 1.426,0.318 2.868,0.594 4.302,0.858 v 0 l 1.654,0.301 c 2.356,0.426 4.795,0.867 7.191,1.426 v 0 c 0.699,0.164 1.581,0.463 2.607,0.811 v 0 c 1.3,0.448 4.011,1.369 4.707,1.286 v 0 c 1.626,-0.531 3.083,0.127 4.25,0.657 v 0 c 0.788,0.351 1.539,0.692 2.312,0.726 v 0 c 2.695,0.11 4.818,0.462 6.891,1.136 v 0 c 1.2,0.395 2.239,0.975 3.249,1.536 v 0 c 0.984,0.545 1.914,1.066 2.829,1.299 v 0 c 0.791,0.198 1.58,0.42 2.377,0.646 v 0 c 1.764,0.503 3.507,1.053 5.247,1.606 v 0 l 2.309,0.725 c 2.427,0.747 7.474,2.295 7.514,6.05 v 0 c 0.011,0.991 -0.658,1.86 -1.619,2.11 v 0 c -1.612,0.416 -3.193,0.245 -4.587,0.092 v 0 c -1.381,-0.146 -2.571,-0.274 -3.597,0.127 v 0 c -0.367,0.145 -0.582,0.305 -0.875,0.529 v 0 c -0.874,0.673 -1.893,1.31 -3.855,1.006 v 0 c -2.324,-0.351 -4.403,-1.087 -6.408,-1.802 v 0 c -2.534,-0.902 -4.927,-1.755 -7.611,-1.755 v 0 c -6.074,0 -10.79,-0.57 -15.278,-1.848 v 0 c -1.189,-0.336 -2.316,-0.698 -3.391,-1.086 v 0 c 0.055,0.184 0.099,0.379 0.132,0.582 v 0 c 0.213,1.348 -0.391,2.488 -0.894,3.343 v 0 c 3.848,2.131 5.305,3.2 5.637,4.617 v 0 c 0.159,0.674 0.028,1.378 -0.362,1.934 v 0 c -1.663,2.39 -1.144,6.572 -0.691,10.258 v 0 c 0.156,1.272 0.31,2.477 0.377,3.63 v 0 c 0.074,1.188 -0.83,2.213 -2.023,2.285 v 0 c -1.205,0.073 -2.215,-0.832 -2.283,-2.022 v 0 c -0.065,-1.019 -0.207,-2.156 -0.355,-3.362 v 0 c -0.48,-3.9 -1.023,-8.255 0.599,-11.795 v 0 c -1.088,-0.73 -2.877,-1.709 -3.582,-2.095 v 0 c -0.51,-0.274 -0.896,-0.492 -1.08,-0.606 v 0 c -0.479,-0.3 -0.823,-0.782 -0.956,-1.336 v 0 c -0.338,-1.435 0.377,-2.651 0.903,-3.538 v 0 c 0.131,-0.226 0.325,-0.55 0.411,-0.746 v 0 c -0.106,-0.226 -0.405,-0.509 -0.846,-0.91 v 0 c -0.445,-0.407 -0.942,-0.863 -1.372,-1.463 v 0 c -0.234,-0.32 -0.435,-0.65 -0.618,-0.998 v 0 c 0.114,1.261 0.202,2.688 -1.063,4.264 v 0 c -1.159,1.443 -2.696,2.255 -4.055,2.969 v 0 c -0.44,0.231 -0.875,0.461 -1.289,0.711 v 0 c -3.123,1.905 -6.238,3.815 -9.356,5.718 v 0 l -1.099,0.674 c -0.311,0.19 -0.848,0.474 -1.487,0.805 v 0 c -0.924,0.473 -3.285,1.697 -3.954,2.343 v 0 c -0.27,0.925 -0.995,2.702 -2.071,3.5 v 0 c -0.986,0.738 -2.109,0.828 -3.011,0.901 v 0 c -0.748,0.063 -1.213,0.113 -1.423,0.334 v 0 c -0.302,0.315 -0.584,0.607 -0.857,0.883 v 0 c -1.697,1.734 -2.4,2.449 -2.534,4.98 v 0 c -0.022,0.455 -0.019,0.922 -0.008,1.393 v 0 c 0.023,2.048 0.054,4.598 -1.956,6.614 v 0 c -0.953,0.963 -2.078,1.417 -2.979,1.783 v 0 c -0.573,0.232 -1.067,0.431 -1.379,0.688 v 0 c -0.121,0.104 -0.25,0.265 -0.4,0.436 v 0 c -0.647,0.735 -1.629,1.849 -3.063,2.338 v 0 c -3.274,1.138 -7.002,1.237 -10.544,1.237 v 0 l -109.203,0.083 c -0.933,0 -1.742,-0.094 -2.392,-0.167 v 0 c -0.167,-0.019 -0.362,-0.043 -0.543,-0.059 v 0 c -0.01,0.159 -0.017,0.363 -0.017,0.612 v 0 l -0.014,6.799 c 0.596,0.443 1.761,0.956 2.45,1.259 v 0 c 0.842,0.372 1.64,0.728 2.303,1.164 v 0 c 1.289,0.847 2.313,1.864 3.312,2.845 v 0 c 0.618,0.614 1.206,1.191 1.815,1.691 v 0 c 0.723,0.596 1.693,1.104 2.714,1.643 v 0 c 1.16,0.61 2.36,1.245 3.372,2.092 v 0 c 1.084,0.912 1.692,2.028 2.225,3.015 v 0 c 0.338,0.62 0.656,1.205 1.023,1.584 v 0 c 0.402,0.417 1.143,0.825 1.856,1.23 v 0 c 1.922,1.081 5.499,3.091 3.626,7.568 v 0 c -0.185,0.437 -0.355,0.811 -0.511,1.148 v 0 c -0.515,1.107 -0.621,1.339 -0.449,2.467 v 0 c 0.029,0.194 0.065,0.394 0.105,0.597 v 0 c 0.276,1.481 0.849,4.56 -2.218,6.175 v 0 c -0.54,0.282 -1.057,0.417 -1.515,0.48 v 0 c 0.102,1.179 0.015,2.037 -0.054,2.635 v 0 c 0.169,0.08 0.397,0.178 0.717,0.305 v 0 c 7.813,3.105 14.027,4.178 19.574,3.363 v 0 c 1.103,-0.152 2.118,0.044 2.933,0.205 v 0 c 0.623,0.125 1.159,0.23 1.557,0.156 v 0 l 6.709,-1.272 c 2.192,-0.414 2.726,-0.658 4.053,-1.868 v 0 c 3.005,-2.741 5.694,-1.79 7.661,-1.095 v 0 c 0.785,0.279 1.531,0.541 2.349,0.649 v 0 c 1.571,0.216 3.183,0.063 4.887,-0.103 v 0 c 0.922,-0.09 1.84,-0.175 2.772,-0.212 v 0 c 1.794,-0.081 3.489,0.548 4.983,1.095 v 0 c 0.446,0.166 0.888,0.325 1.306,0.459 v 0 c 0.78,0.24 1.604,0.366 2.472,0.498 v 0 c 0.609,0.093 1.217,0.189 1.832,0.319 v 0 c 1.777,0.367 2.45,1.554 2.85,2.259 v 0 c 0.079,0.14 0.162,0.293 0.265,0.434 v 0 c 0.401,0.548 1.227,1.052 2.026,1.538 v 0 l 0.477,0.292 c 1.309,0.818 2.577,1.644 3.642,2.747 v 0 c 0.188,0.082 0.857,0.051 1.26,0.028 v 0 c 0.947,-0.048 2.121,-0.11 3.254,0.389 v 0 c 4.275,1.875 2.847,6.891 2.08,9.587 v 0 c -0.207,0.73 -0.443,1.554 -0.468,1.932 v 0 c -0.044,0.712 0.477,1.409 1.322,2.491 v 0 c 1.027,1.303 2.307,2.932 2.246,5.213 v 0 c -0.051,1.915 -1.264,4.704 -3.788,4.918 v 0 c -0.888,0.07 -1.626,-0.239 -2.154,-0.492 v 0 c -0.124,0.283 -0.223,0.638 -0.247,0.883 v 0 c 0.318,0.363 1.215,0.929 1.62,1.188 v 0 c 0.194,0.126 0.379,0.24 0.535,0.347 v 0 c 0.859,0.579 1.819,1.089 2.837,1.629 v 0 c 1.639,0.869 3.334,1.771 4.812,3.07 v 0 c 0.497,0.435 0.968,0.866 1.423,1.291 v 0 c 0.952,0.88 1.852,1.716 2.854,2.39 v 0 c 1.412,0.942 1.644,2.673 1.829,4.062 v 0 c 0.04,0.332 0.111,0.832 0.166,0.989 v 0 c 0.773,1.929 3.221,3.877 5.386,5.6 v 0 c 0.916,0.73 1.78,1.419 2.538,2.113 v 0 c 0.415,0.382 0.821,0.766 1.229,1.148 v 0 c 1.835,1.721 3.563,3.348 5.595,4.599 v 0 c 1.644,1.015 4.065,2.446 6.111,3.215 v 0 c 2.276,0.858 3.024,0.814 5.807,0.652 v 0 l 0.559,-0.034 c 5.693,-0.325 11.512,-0.175 17.139,-0.029 v 0 c 2.75,0.068 5.497,0.137 8.226,0.152 v 0 c 0.992,0.008 2.238,0.161 3.562,0.323 v 0 c 2.272,0.285 6.508,0.805 7.598,-0.137 v 0 c 0.065,-0.05 0.174,-0.147 0.19,-0.487 v 0 c -0.025,-0.107 -0.191,-0.398 -0.3,-0.594 v 0 c -0.361,-0.648 -0.857,-1.537 -0.857,-2.719 v 0 c 0,-1.294 0.594,-2.17 0.944,-2.693 v 0 c 0.072,-0.113 0.157,-0.212 0.186,-0.213 v 0 c -0.094,-0.526 -0.251,-1.079 -0.407,-1.641 v 0 c -0.295,-1.064 -0.627,-2.275 -0.67,-3.468 v 0 c -0.041,-1.196 0.897,-2.19 2.087,-2.231 v 0 c 1.169,-0.067 2.19,0.892 2.23,2.085 v 0 c 0.021,0.685 0.271,1.59 0.514,2.465 v 0 c 0.19,0.691 0.378,1.375 0.494,2.017 v 0 c 0.302,1.673 -0.447,2.79 -0.852,3.392 v 0 c -0.082,0.125 -0.199,0.303 -0.209,0.267 v 0 c 0.022,0.109 0.195,0.428 0.314,0.637 v 0 c 0.364,0.656 0.861,1.551 0.835,2.742 v 0 c -0.034,1.512 -0.615,2.796 -1.678,3.711 v 0 c -1.421,1.227 -3.446,1.593 -5.648,1.593 v 0 c -1.729,0 -3.567,-0.227 -5.302,-0.44 m -1.191,-163.909 c 2.48,1.601 5.471,2.885 9.14,3.924 v 0 c 4.094,1.162 8.439,1.682 14.099,1.682 v 0 c 3.43,0 6.288,1.021 9.059,2.005 v 0 c 1.897,0.677 3.691,1.312 5.602,1.602 v 0 c 0.204,0.028 0.31,0.028 0.316,0.039 v 0 c 0.097,-0.054 0.179,-0.13 0.276,-0.202 v 0 c 0.391,-0.302 0.982,-0.758 1.926,-1.125 v 0 c 0.615,-0.241 1.223,-0.391 1.822,-0.475 v 0 l -1.575,-0.49 c -1.698,-0.542 -3.407,-1.082 -5.126,-1.575 v 0 c -0.749,-0.209 -1.503,-0.419 -2.252,-0.609 v 0 c -1.465,-0.372 -2.69,-1.056 -3.875,-1.711 v 0 c -0.867,-0.489 -1.683,-0.942 -2.489,-1.204 v 0 c -1.681,-0.55 -3.447,-0.835 -5.734,-0.93 v 0 c -1.605,-0.07 -2.877,-0.643 -3.898,-1.105 v 0 c -0.411,-0.184 -1.028,-0.462 -1.14,-0.485 v 0 c -1.709,0.559 -4.055,-0.153 -7.439,-1.305 v 0 c -0.878,-0.298 -1.709,-0.578 -2.19,-0.692 v 0 c -2.296,-0.535 -4.678,-0.967 -6.981,-1.384 v 0 l -1.673,-0.299 c -0.493,-0.092 -0.991,-0.187 -1.485,-0.282 v 0 c 0.143,0.55 0.178,1.22 0.009,2.026 v 0 c -0.063,0.296 -0.058,0.592 0.004,1.139 v 0 c 0.023,0.19 0.092,0.411 0.178,0.697 v 0 c 0.08,0.258 0.159,0.522 0.224,0.798 v 0 c 0.055,0.232 0.107,0.464 0.161,0.693 v 0 c 0.156,-0.278 0.38,-0.521 0.657,-0.709 v 0 c 0.367,-0.246 0.788,-0.369 1.21,-0.369 v 0 c 0.408,0 0.816,0.115 1.174,0.346"
                   style="fill:url(#linearGradient284);stroke:none"
                   id="path286" />
              </g>
            </g>
          </g>
        </g>
      </g>
    </g>
  </g>
</svg>
