<svg width="80" height="80" viewBox="0 0 80 80" fill="none" xmlns="http://www.w3.org/2000/svg">
<rect width="80" height="80" fill="white"/>
<path d="M46.76 19.1061C46.4726 19.1416 46.2 19.1749 46.0202 19.1758C45.3533 19.1797 44.6835 19.1973 44.011 19.2144C42.6707 19.2479 41.2849 19.2831 39.9496 19.2069L39.8168 19.1999C39.101 19.1587 38.7415 19.1377 37.9837 19.4213C37.4106 19.6362 36.7962 19.9961 36.325 20.2845C35.7435 20.6424 35.266 21.0898 34.8039 21.5225C34.7077 21.6122 34.6116 21.7024 34.5144 21.7919C34.3605 21.933 34.1641 22.0888 33.9575 22.2528C33.3332 22.7486 32.6259 23.3091 32.3366 24.029C32.2756 24.1783 32.2526 24.3515 32.2297 24.5181C32.2183 24.6059 32.2002 24.7417 32.1798 24.8138C31.8968 25.0113 31.6561 25.2335 31.4234 25.4481C31.3197 25.5439 31.2135 25.6413 31.1002 25.7407C30.8325 25.9741 30.4931 26.1548 30.1331 26.3448C29.8753 26.4818 29.6077 26.6241 29.3552 26.7929L29.2485 26.8616C28.9522 27.0498 28.5463 27.3061 28.4149 27.7041C28.2565 28.1831 28.5417 29.0267 29.0613 29.2645C29.385 29.4131 29.668 29.3043 29.8448 29.2204C29.8583 29.2609 29.8685 29.3043 29.869 29.3356C29.8731 29.498 29.7509 29.6661 29.5494 29.9229C29.2923 30.2487 28.972 30.6556 29.0093 31.2315C29.0219 31.4351 29.086 31.6587 29.1595 31.9177C29.2645 32.2862 29.4411 32.9029 29.2405 32.9909C29.1929 33.0112 29.0337 33.0037 28.929 32.9982C28.6273 32.9834 28.1747 32.9586 27.8337 33.3093C27.6452 33.5 27.406 33.6554 27.1346 33.8237L27.0286 33.8883C26.7754 34.0432 26.4599 34.2339 26.2398 34.533C26.1885 34.6039 26.1479 34.6726 26.1101 34.739C26.1007 34.7551 26.0925 34.771 26.084 34.7858C25.9643 34.8096 25.8465 34.827 25.7284 34.846C25.489 34.8817 25.242 34.9191 24.9778 35.0004C24.8591 35.038 24.7369 35.0826 24.6121 35.1285C24.3291 35.2314 24.0388 35.3373 23.8085 35.3291C23.6026 35.3212 23.3982 35.3016 23.1948 35.2823C22.7429 35.2389 22.2751 35.1953 21.7761 35.2609C21.4701 35.3016 21.218 35.3901 20.9967 35.468C20.5547 35.6251 20.4514 35.6501 20.1955 35.4174C19.6972 34.9633 19.3709 34.8383 18.7071 34.7122L17.0835 34.4057C16.7898 34.349 16.524 34.402 16.3087 34.4447C16.166 34.4739 16.0426 34.4988 15.9521 34.4855C14.4241 34.2624 12.7497 34.54 10.6827 35.359C9.99107 35.6323 9.79078 35.9096 9.85561 36.5027C9.87133 36.6433 9.8885 36.8015 9.85561 37.048C9.82174 37.2923 9.80989 37.6034 10.0189 37.8371C10.2281 38.0728 10.5056 38.0648 10.657 38.0658C10.7044 38.0648 10.7688 38.0641 10.7869 38.0735C10.8077 38.0843 10.8184 38.0928 10.8184 38.0928C10.8401 38.1495 10.8034 38.3446 10.783 38.4497C10.7724 38.5115 10.7615 38.571 10.7523 38.6284C10.6643 39.2116 10.7942 39.4926 10.9466 39.8189C10.9787 39.8891 11.0155 39.9672 11.054 40.0584C11.1355 40.253 11.1476 40.2831 10.6292 40.5752C10.403 40.7013 10.1459 40.8456 9.94269 41.0539C9.75377 41.2471 9.63258 41.4683 9.52687 41.6636C9.42818 41.8431 9.34496 41.9979 9.23248 42.0915C9.07452 42.2241 8.84593 42.3445 8.60258 42.4718C8.32053 42.6197 8.02929 42.7735 7.77312 42.9826C7.5871 43.1343 7.42067 43.2974 7.26005 43.4551C7.04501 43.6669 6.84302 43.8656 6.61854 44.0144C6.5317 44.0711 6.36987 44.1425 6.21384 44.2112C5.79584 44.3957 5.32221 44.6043 5.07862 44.9933C5.02734 45.0761 5 45.1716 5 45.2685L5.0017 47.1077C5.00242 47.4533 5.04185 47.8397 5.32584 48.0929C5.6195 48.3527 5.98211 48.3114 6.30262 48.2745C6.44655 48.2579 6.59483 48.241 6.76101 48.241L33.176 48.2615C33.9757 48.2615 34.7454 48.2806 35.3874 48.502C35.4735 48.5319 35.6008 48.6754 35.6837 48.7706C35.7628 48.8592 35.8335 48.9351 35.8959 48.9875C36.0983 49.1548 36.3163 49.2431 36.5076 49.3196C36.6639 49.3825 36.7979 49.4368 36.8777 49.5171C37.0471 49.6859 37.0519 49.9498 37.0478 50.3655C37.0458 50.5016 37.0444 50.6364 37.0517 50.7676C37.1041 51.7721 37.5016 52.1763 37.9619 52.6451C38.0234 52.7081 38.0891 52.7737 38.1559 52.8448C38.4856 53.1909 38.8998 53.2252 39.1741 53.2476C39.2333 53.2522 39.3192 53.2585 39.3526 53.2611C39.4014 53.3376 39.4716 53.4967 39.4851 53.5628C39.5773 54.0153 40.1305 54.3312 40.9643 54.7603C41.0916 54.8266 41.1983 54.8806 41.2592 54.9173L41.5248 55.0796C42.2793 55.5405 43.0347 56.0006 43.7897 56.4608C43.9094 56.5324 44.0338 56.5985 44.1598 56.6644C44.421 56.8016 44.6668 56.9304 44.812 57.1101C44.8594 57.1704 44.8632 57.1752 44.8386 57.4453C44.811 57.7472 44.7597 58.0557 44.6806 58.3895C44.6709 58.4329 44.6581 58.4742 44.6453 58.5142C44.6153 58.6087 44.5793 58.7269 44.5638 58.8666C44.543 59.0354 44.5297 59.2199 44.5684 59.4345C44.5139 59.4695 44.4494 59.5189 44.386 59.5894C44.3294 59.6525 44.2798 59.7232 44.2316 59.7939L44.1837 59.8636C44.0369 60.0734 43.9823 60.3028 44.0311 60.5078C44.073 60.6857 44.1862 60.8324 44.3492 60.9214C44.4578 60.9805 44.5696 61 44.6743 61C44.8253 61 44.9644 60.9576 45.0635 60.9269L45.1056 60.9153C45.4506 60.8387 45.7994 60.7721 46.1463 60.7084L46.5464 60.6358C47.1163 60.5331 47.7063 60.4267 48.2858 60.2919C48.4549 60.2524 48.6683 60.1802 48.9165 60.0963C49.2309 59.9883 49.8867 59.7661 50.0551 59.7862C50.4484 59.9142 50.8009 59.7555 51.0832 59.6277C51.2738 59.543 51.4554 59.4608 51.6424 59.4526C52.2943 59.4261 52.8079 59.3412 53.3093 59.1786C53.5996 59.0834 53.8509 58.9435 54.0953 58.8082C54.3333 58.6767 54.5583 58.5511 54.7796 58.4949C54.9709 58.4471 55.1618 58.3936 55.3546 58.3391C55.7813 58.2178 56.2029 58.0851 56.6238 57.9518L57.1824 57.7769C57.7694 57.5968 58.9903 57.2234 59 56.3178C59.0026 56.0788 58.8408 55.8692 58.6083 55.8089C58.2184 55.7086 57.836 55.7498 57.4988 55.7867C57.1647 55.8219 56.8768 55.8528 56.6286 55.7561C56.5399 55.7211 56.4879 55.6825 56.417 55.6285C56.2056 55.4662 55.9591 55.3126 55.4845 55.3859C54.9223 55.4705 54.4194 55.648 53.9344 55.8205C53.3214 56.038 52.7426 56.2438 52.0933 56.2438C50.624 56.2438 49.4832 56.3812 48.3976 56.6894C48.11 56.7705 47.8374 56.8578 47.5773 56.9514C47.5906 56.907 47.6013 56.86 47.6093 56.811C47.6608 56.4859 47.5147 56.211 47.393 56.0047C48.3238 55.4908 48.6763 55.233 48.7566 54.8912C48.7951 54.7287 48.7634 54.5589 48.669 54.4248C48.2667 53.8484 48.3923 52.8398 48.5019 51.9508C48.5396 51.644 48.5769 51.3534 48.5931 51.0753C48.611 50.7888 48.3923 50.5416 48.1037 50.5242C47.8122 50.5066 47.5679 50.7249 47.5514 51.0119C47.5357 51.2577 47.5014 51.5319 47.4656 51.8227C47.3495 52.7633 47.2181 53.8137 47.6105 54.6674C47.3473 54.8435 46.9145 55.0796 46.744 55.1727C46.6206 55.2388 46.5273 55.2913 46.4827 55.3188C46.3669 55.3912 46.2837 55.5074 46.2515 55.641C46.1697 55.9871 46.3427 56.2804 46.4699 56.4943C46.5016 56.5488 46.5485 56.627 46.5693 56.6743C46.5437 56.7288 46.4714 56.797 46.3647 56.8937C46.2571 56.9919 46.1368 57.1019 46.0328 57.2466C45.9762 57.3237 45.9276 57.4033 45.8833 57.4873C45.9109 57.1831 45.9322 56.839 45.6262 56.4589C45.3458 56.1109 44.974 55.915 44.6453 55.7428C44.5389 55.6871 44.4336 55.6316 44.3335 55.5713C43.578 55.1119 42.8245 54.6513 42.0703 54.1923L41.8044 54.0297C41.7292 53.9839 41.5993 53.9154 41.4447 53.8356C41.2212 53.7215 40.6501 53.4263 40.4883 53.2705C40.423 53.0474 40.2476 52.6189 39.9873 52.4264C39.7488 52.2484 39.4772 52.2267 39.259 52.2091C39.078 52.1939 38.9655 52.1818 38.9147 52.1285C38.8417 52.0526 38.7735 51.9822 38.7074 51.9156C38.2969 51.4974 38.1269 51.3249 38.0945 50.7145C38.0891 50.6048 38.0899 50.4922 38.0925 50.3786C38.0981 49.8846 38.1056 49.2696 37.6194 48.7834C37.3889 48.5512 37.1167 48.4417 36.8988 48.3534C36.7602 48.2975 36.6407 48.2495 36.5652 48.1875C36.5359 48.1624 36.5047 48.1236 36.4684 48.0823C36.3119 47.9051 36.0744 47.6364 35.7275 47.5184C34.9355 47.244 34.0337 47.2201 33.1769 47.2201L6.76101 47.2001C6.53532 47.2001 6.33963 47.2228 6.18239 47.2404C6.142 47.245 6.09483 47.2507 6.05104 47.2546C6.04863 47.2163 6.04693 47.1671 6.04693 47.107L6.04354 45.4672C6.18772 45.3604 6.46953 45.2367 6.6362 45.1636C6.83987 45.0739 7.03291 44.988 7.19329 44.8829C7.50509 44.6786 7.75279 44.4333 7.99445 44.1967C8.14394 44.0486 8.28618 43.9095 8.43349 43.7889C8.60838 43.6451 8.84303 43.5226 9.09001 43.3926C9.37061 43.2455 9.66088 43.0924 9.90568 42.8881C10.1679 42.6681 10.315 42.399 10.4439 42.1609C10.5257 42.0114 10.6026 41.8703 10.6914 41.7789C10.7886 41.6784 10.9679 41.5799 11.1403 41.4823C11.6053 41.2216 12.4705 40.7368 12.0174 39.657C11.9727 39.5517 11.9316 39.4614 11.8938 39.3802C11.7693 39.1132 11.7436 39.0572 11.7852 38.7852C11.7922 38.7384 11.8009 38.6902 11.8106 38.6412C11.8774 38.284 12.016 37.5414 11.2741 37.1519C11.1435 37.0839 11.0184 37.0514 10.9076 37.0362C10.9323 36.7518 10.9112 36.5449 10.8946 36.4007C10.9354 36.3814 10.9906 36.3577 11.068 36.3271C12.9579 35.5783 14.4611 35.3195 15.8029 35.516C16.0697 35.5527 16.3152 35.5054 16.5124 35.4666C16.6631 35.4365 16.7927 35.4111 16.889 35.429L18.5119 35.7358C19.0421 35.8356 19.1713 35.8944 19.4923 36.1863C20.2192 36.8473 20.8697 36.618 21.3455 36.4504C21.5354 36.3831 21.7158 36.3199 21.9137 36.2938C22.2937 36.2417 22.6837 36.2786 23.0959 36.3187C23.3189 36.3404 23.541 36.3609 23.7664 36.3698C24.2004 36.3893 24.6104 36.2376 24.9718 36.1057C25.0797 36.0657 25.1866 36.0273 25.2877 35.995C25.4764 35.9371 25.6757 35.9067 25.8857 35.8749C26.033 35.8525 26.1801 35.8293 26.3288 35.798C26.7587 35.7095 26.9215 35.4232 27.0182 35.2532C27.0373 35.2194 27.0574 35.1825 27.0823 35.1485C27.1793 35.0163 27.3791 34.8948 27.5724 34.7776L27.6878 34.7071C28.0044 34.5099 28.3112 34.3106 28.5688 34.0446C28.6143 34.0248 28.7761 34.0323 28.8736 34.0379C29.1027 34.0494 29.3867 34.0644 29.6607 33.9441C30.6948 33.4918 30.3494 32.2821 30.1639 31.6319C30.1138 31.4558 30.0567 31.2571 30.0507 31.1659C30.04 30.9942 30.166 30.8261 30.3704 30.5652C30.6189 30.2509 30.9285 29.858 30.9137 29.3079C30.9014 28.846 30.608 28.1734 29.9974 28.1218C29.7826 28.1049 29.6041 28.1794 29.4764 28.2405C29.4464 28.1722 29.4225 28.0866 29.4166 28.0275C29.4936 27.9399 29.7105 27.8034 29.8085 27.741C29.8554 27.7106 29.9002 27.6831 29.9379 27.6573C30.1457 27.5176 30.3779 27.3946 30.6242 27.2644C31.0207 27.0548 31.4307 26.8373 31.7882 26.524C31.9084 26.4191 32.0224 26.3151 32.1324 26.2126C32.3627 26.0004 32.5804 25.7988 32.8228 25.6362C33.1644 25.409 33.2205 24.9916 33.2652 24.6566C33.2749 24.5765 33.2921 24.4559 33.3054 24.418C33.4924 23.9528 34.0845 23.483 34.6082 23.0674C34.8298 22.8914 35.0388 22.7252 35.2222 22.5578C35.3226 22.4657 35.4208 22.3731 35.5195 22.281C35.9634 21.8659 36.3814 21.4735 36.8729 21.1718C37.2706 20.927 37.8562 20.5819 38.3511 20.3964C38.9017 20.1895 39.0826 20.2001 39.7558 20.2392L39.891 20.2474C41.2682 20.3257 42.6758 20.2896 44.0369 20.2544C44.7021 20.238 45.3666 20.2213 46.0268 20.2177C46.2667 20.2158 46.5681 20.1789 46.8884 20.1398C47.438 20.0711 48.4627 19.9457 48.7264 20.1728C48.7421 20.1849 48.7684 20.2083 48.7723 20.2903C48.7663 20.3161 48.7261 20.3863 48.6997 20.4336C48.6124 20.5898 48.4924 20.8042 48.4924 21.0893C48.4924 21.4014 48.6361 21.6127 48.7208 21.7388C48.7382 21.7661 48.7588 21.7899 48.7658 21.7902C48.743 21.917 48.7051 22.0504 48.6673 22.1859C48.596 22.4426 48.5157 22.7346 48.5053 23.0224C48.4953 23.3108 48.7222 23.5505 49.0101 23.5604C49.2929 23.5766 49.5398 23.3453 49.5495 23.0576C49.5546 22.8924 49.6151 22.6741 49.6739 22.4631C49.7198 22.2964 49.7653 22.1314 49.7933 21.9766C49.8664 21.5731 49.6852 21.3037 49.5873 21.1585C49.5674 21.1284 49.5391 21.0855 49.5367 21.0941C49.542 21.0679 49.5839 20.9909 49.6127 20.9405C49.7007 20.7823 49.8209 20.5664 49.8146 20.2792C49.8064 19.9145 49.6659 19.6049 49.4087 19.3842C49.065 19.0883 48.5752 19 48.0425 19C47.6243 19 47.1797 19.0547 46.76 19.1061ZM46.4719 58.6372C47.0718 58.2511 47.7953 57.9414 48.6828 57.6908C49.6731 57.4106 50.7242 57.2852 52.0933 57.2852C52.923 57.2852 53.6144 57.0389 54.2847 56.8016C54.7435 56.6383 55.1775 56.4852 55.6398 56.4152C55.6891 56.4085 55.7148 56.4085 55.7162 56.4058C55.7397 56.4188 55.7595 56.4372 55.783 56.4545C55.8776 56.5274 56.0205 56.6374 56.2489 56.7259C56.3976 56.784 56.5447 56.8202 56.6896 56.8404L56.3086 56.9586C55.8979 57.0893 55.4845 57.2196 55.0687 57.3385C54.8875 57.3889 54.7051 57.4395 54.5239 57.4853C54.1695 57.575 53.8732 57.74 53.5866 57.898C53.3768 58.0159 53.1794 58.1252 52.9845 58.1884C52.5778 58.321 52.1506 58.3897 51.5974 58.4127C51.2092 58.4295 50.9015 58.5677 50.6545 58.6792C50.5551 58.7235 50.4058 58.7906 50.3788 58.7961C49.9653 58.6613 49.3979 58.833 48.5793 59.1109C48.3669 59.1827 48.1659 59.2503 48.0495 59.2778C47.4941 59.4068 46.9179 59.511 46.3608 59.6115L45.9561 59.6837C45.8369 59.7058 45.7164 59.7288 45.5969 59.7517C45.6315 59.619 45.64 59.4574 45.5991 59.263C45.5839 59.1917 45.5851 59.1203 45.6001 58.9883C45.6056 58.9425 45.6223 58.8892 45.6431 58.8202C45.6625 58.758 45.6816 58.6943 45.6973 58.6278C45.7106 58.5718 45.7232 58.5159 45.7363 58.4606C45.774 58.5277 45.8282 58.5863 45.8952 58.6316C45.984 58.691 46.0858 58.7206 46.1879 58.7206C46.2866 58.7206 46.3853 58.6929 46.4719 58.6372Z" fill="url(#paint0_linear_2117_334)"/>
<path d="M57.9144 59.1269C57.9144 59.1269 57.9008 59.1114 57.9008 59.0722C57.9008 59.0342 57.9144 59.0173 57.9144 59.0173H58.6125C58.6125 59.0173 58.6261 59.0342 58.6261 59.0722C58.6261 59.11 58.6125 59.1269 58.6125 59.1269H58.337V59.9845C58.337 59.9845 58.3166 60 58.2649 60C58.2117 60 58.1899 59.9845 58.1899 59.9845V59.1269H57.9144Z" fill="#1C75BC"/>
<path d="M59.2727 59.9425C59.2618 59.9496 59.2426 59.958 59.2113 59.958C59.1894 59.958 59.1638 59.9537 59.1525 59.9425L58.9401 59.3921C58.9278 59.3628 58.9074 59.3035 58.906 59.2953C58.906 59.2994 58.9006 59.3769 58.8977 59.3991L58.8583 59.9847C58.8583 59.9847 58.8392 59.9999 58.7861 59.9999C58.733 59.9999 58.7109 59.9847 58.7109 59.9847L58.7847 59.0327C58.7847 59.0327 58.8051 59.0174 58.8557 59.0174C58.9116 59.0174 58.9321 59.0327 58.9321 59.0327L59.1786 59.6744L59.2113 59.7796C59.2127 59.7755 59.2343 59.7053 59.2454 59.6744L59.4922 59.0327C59.4922 59.0327 59.5141 59.0174 59.57 59.0174C59.6191 59.0174 59.6393 59.0327 59.6393 59.0327L59.7132 59.9847C59.7132 59.9847 59.6913 59.9999 59.6382 59.9999C59.5862 59.9999 59.5672 59.9847 59.5672 59.9847L59.5263 59.3979L59.5181 59.2939C59.5181 59.2953 59.495 59.3667 59.4854 59.3907L59.2727 59.9425Z" fill="#1C75BC"/>
<path d="M48.4355 25.1856L50.8403 29.128V25.1958C50.8403 25.1958 51.1111 25.0002 51.7636 25.0002C52.4241 25.0002 52.6937 25.1958 52.6937 25.1958V32.0275C52.6937 32.0275 52.4335 32.2238 51.7726 32.2238C51.1313 32.2238 50.8702 32.0486 50.8702 32.0486L48.4557 28.1066V32.0275C48.4557 32.0275 48.1847 32.2238 47.5232 32.2238C46.8815 32.2238 46.611 32.0275 46.611 32.0275V25.1958C46.611 25.1958 46.8627 25.0002 47.5338 25.0002C48.1746 25.0002 48.4355 25.1856 48.4355 25.1856Z" fill="#F5AA1C"/>
<path d="M57.604 29.0865H55.8507V30.8309H58.3858C58.3858 30.8309 58.5764 31.0475 58.5764 31.5214C58.5764 32.0067 58.3858 32.2236 58.3858 32.2236H53.9971V25H58.1858C58.1858 25 58.3858 25.2174 58.3858 25.7022C58.3858 26.1768 58.1858 26.4034 58.1858 26.4034H55.8507V27.6836H57.604C57.604 27.6836 57.7944 27.9104 57.7944 28.385C57.7944 28.88 57.604 29.0865 57.604 29.0865Z" fill="#F5AA1C"/>
<path d="M60.8306 32.0276L58.9362 25.1959C58.9362 25.1959 59.2169 25.0001 59.8685 25.0001C60.5295 25.0001 60.7906 25.1959 60.7906 25.1959L61.7423 28.6637C61.8124 28.9215 61.8427 29.1175 61.8726 29.2318C61.8726 29.1998 61.9233 28.9113 61.9833 28.6739L62.8142 25.1959C62.8142 25.1959 63.1346 25.0001 63.5866 25.0001C64.017 25.0001 64.3183 25.1959 64.3183 25.1959L65.1098 28.6637L65.2402 29.2318C65.2402 29.1381 65.3004 28.8801 65.3601 28.6739L66.3424 25.1959C66.352 25.1959 66.6127 25.0001 67.2542 25.0001C67.9055 25.0001 68.1862 25.1959 68.1862 25.1959L66.262 32.0276C66.262 32.0276 65.9912 32.2133 65.3801 32.2237C64.6688 32.2237 64.4185 32.0276 64.4185 32.0276L63.6665 28.8597C63.6068 28.6221 63.5659 28.3645 63.5567 28.3122L63.4354 28.8597L62.6842 32.0276C62.6842 32.0276 62.424 32.2237 61.7626 32.2237C61.111 32.2237 60.8306 32.0276 60.8306 32.0276Z" fill="#F5AA1C"/>
<path d="M47.8539 34.1637L48.6756 35.6494C48.9565 36.1555 49.1072 36.7229 49.1269 36.7948C49.1474 36.7229 49.2875 36.1662 49.578 35.6494L50.4198 34.1637C50.4198 34.1637 50.6703 33.9783 51.281 33.9783C51.9728 33.9783 52.264 34.2153 52.264 34.2153L50.0486 38.157V41.0047C50.0486 41.0047 49.7884 41.2015 49.1269 41.2015C48.4749 41.2015 48.2152 41.0047 48.2152 41.0047V38.1263L46 34.2153C46 34.2153 46.3011 33.9783 46.9917 33.9783C47.5836 33.9783 47.8539 34.1637 47.8539 34.1637Z" fill="#F5AA1C"/>
<path d="M55.6203 39.8799C56.6216 39.8799 57.1634 38.9517 57.1634 37.6004C57.1634 36.2485 56.6216 35.3091 55.6203 35.3091C54.6182 35.3091 54.0778 36.2485 54.0778 37.6004C54.0778 38.9517 54.6182 39.8799 55.6203 39.8799ZM55.6203 41.2739C53.2551 41.2739 52.223 39.8492 52.223 37.6004C52.223 35.3503 53.2551 33.9058 55.6203 33.9058C57.9755 33.9058 59.017 35.3503 59.017 37.6004C59.017 39.8492 57.9755 41.2739 55.6203 41.2739Z" fill="#F5AA1C"/>
<path d="M62.3845 35.3091C62.0836 35.3091 61.8634 35.3711 61.8634 35.3711V37.1663H62.3638C63.0946 37.1663 63.3762 36.6406 63.3762 36.2381C63.3762 35.7116 63.0253 35.3091 62.3845 35.3091ZM61.8634 41.0047C61.8634 41.0047 61.5926 41.2015 60.9309 41.2015C60.2796 41.2015 60.0189 41.0047 60.0189 41.0047V34.2671C60.0189 34.2671 60.7704 33.9057 62.1534 33.9057C64.2478 33.9057 65.2204 34.7311 65.2204 36.1756C65.2204 37.6003 64.1575 38.1766 64.0275 38.1885L65.6506 40.9645C65.451 41.0979 64.8998 41.2015 64.5289 41.2015C64.048 41.2015 63.6672 41.026 63.6672 41.026L62.4447 38.8285C62.3739 38.6731 62.274 38.5596 62.1041 38.5596H61.8634V41.0047Z" fill="#F5AA1C"/>
<path d="M72.7454 40.9536C72.7454 40.9536 72.2748 41.2014 71.5132 41.2014C70.8614 41.2014 70.5909 41.0262 70.5909 41.0262L68.2163 37.7029V41.0047C68.2163 41.0047 67.9657 41.2014 67.3043 41.2014C66.6422 41.2014 66.3723 41.0047 66.3723 41.0047V34.1744C66.3723 34.1744 66.6422 33.9781 67.3043 33.9781C67.9556 33.9781 68.2163 34.1744 68.2163 34.1744V37.3837L70.5112 34.1637C70.5112 34.1637 70.7812 33.9781 71.4328 33.9781C72.1838 33.9781 72.4856 34.2354 72.4856 34.2354L70.2406 37.3837L72.7454 40.9536Z" fill="#F5AA1C"/>
<path d="M51.3623 43.4509C51.4918 44.1107 51.1509 44.6371 50.7699 44.7712C50.399 44.5144 49.8088 44.2864 49.1875 44.2864C48.5559 44.2864 48.205 44.5335 48.205 44.8852C48.205 45.2154 48.4955 45.3289 49.267 45.5876L50.2293 45.9067C51.2619 46.2574 51.9026 46.7947 51.9026 47.9289C51.9026 49.2399 51.0611 50.2514 49.0166 50.2514C47.5835 50.2514 46.7009 49.7559 46.3805 49.4258C46.2803 48.9409 46.5403 48.3317 46.9126 48.1357C47.2326 48.3838 48.1848 48.8582 49.1563 48.8582C49.7378 48.8582 50.0591 48.642 50.0591 48.2489C50.0591 47.9708 49.8885 47.7953 49.4877 47.6605L47.875 47.1561C47.0118 46.8768 46.3612 46.2375 46.3612 45.1946C46.3612 43.7082 47.343 42.8835 49.1563 42.8835C50.3092 42.8835 50.981 43.2035 51.3623 43.4509Z" fill="#F5AA1C"/>
<path d="M52.403 44.359C52.403 44.359 52.2123 44.1528 52.2123 43.6571C52.2123 43.1827 52.403 42.9551 52.403 42.9551H57.8447C57.8447 42.9551 58.0356 43.1722 58.0356 43.6571C58.0356 44.1426 57.8447 44.359 57.8447 44.359H56.0402V49.9832C56.0402 49.9832 55.7805 50.1792 55.1291 50.1792C54.4574 50.1792 54.187 49.9832 54.187 49.9832V44.359H52.403Z" fill="#F5AA1C"/>
<path d="M60.1391 47.4236H61.6326L61.1317 46.1851C61.0314 45.9375 60.9014 45.4318 60.8901 45.3803C60.8708 45.4318 60.7199 45.9375 60.6304 46.1851L60.1391 47.4236ZM61.7922 43.1411L64.4987 49.9513C64.4987 49.9513 64.2284 50.1793 63.546 50.1793C62.9149 50.1793 62.6652 49.9932 62.6652 49.9932L62.1733 48.8062H59.5982L59.1364 49.9932C59.1364 49.9932 58.8766 50.1793 58.2556 50.1793C57.5742 50.1793 57.2832 49.9513 57.2832 49.9513L59.9894 43.1411C59.9894 43.1411 60.2392 42.9552 60.8901 42.9552C61.5426 42.9552 61.7922 43.1411 61.7922 43.1411Z" fill="#F5AA1C"/>
<path d="M63.9468 44.359C63.9468 44.359 63.7564 44.1528 63.7564 43.6571C63.7564 43.1827 63.9468 42.9551 63.9468 42.9551H69.3886C69.3886 42.9551 69.5785 43.1722 69.5785 43.6571C69.5785 44.1426 69.3886 44.359 69.3886 44.359H67.5838V49.9832C67.5838 49.9832 67.3245 50.1792 66.6725 50.1792C66.0012 50.1792 65.7306 49.9832 65.7306 49.9832V44.359H63.9468Z" fill="#F5AA1C"/>
<path d="M74.028 47.0417H72.2743V48.7859H74.8094C74.8094 48.7859 75 49.0025 75 49.4769C75 49.9627 74.8094 50.1791 74.8094 50.1791H70.4199V42.9552H74.6091C74.6091 42.9552 74.8094 43.1724 74.8094 43.6574C74.8094 44.1316 74.6091 44.3589 74.6091 44.3589H72.2743V45.6383H74.028C74.028 45.6383 74.2182 45.8663 74.2182 46.341C74.2182 46.8352 74.028 47.0417 74.028 47.0417Z" fill="#F5AA1C"/>
<defs>
<linearGradient id="paint0_linear_2117_334" x1="55.7763" y1="53.9634" x2="18.397" y2="18.2301" gradientUnits="userSpaceOnUse">
<stop stop-color="#27AAE1"/>
<stop offset="1" stop-color="#21409A"/>
</linearGradient>
</defs>
</svg>
