<svg width="80" height="80" viewBox="0 0 80 80" fill="none" xmlns="http://www.w3.org/2000/svg">
<rect width="80" height="80" fill="white"/>
<path d="M40 72C57.6732 72 72 57.6721 72 40C72 22.3279 57.6732 8 40 8C22.3268 8 8 22.3279 8 40C8 57.6721 22.3268 72 40 72Z" fill="white"/>
<path d="M51.2482 54.5467C55.4958 54.5467 58.9359 51.1042 58.9359 46.8581C58.9359 42.612 55.4958 39.1695 51.2482 39.1695C47.0006 39.1695 43.5605 42.612 43.5605 46.8581C43.5605 51.1042 47.005 54.5467 51.2482 54.5467Z" fill="#00D5FF"/>
<path d="M29.024 54.5467C33.2716 54.5467 36.7117 51.1042 36.7117 46.8581C36.7117 42.612 33.2671 39.1695 29.024 39.1695C24.7808 39.1695 21.3363 42.612 21.3363 46.8581C21.3363 51.1042 24.7808 54.5467 29.024 54.5467Z" fill="#FC0842"/>
<path d="M39.9777 34.6957C44.2253 34.6957 47.6654 31.2532 47.6654 27.0071C47.6654 22.761 44.2253 19.3185 39.9777 19.3185C35.7301 19.3185 32.29 22.761 32.29 27.0071C32.29 31.2532 35.7345 34.6957 39.9777 34.6957Z" fill="#FEBF02"/>
<path d="M39.9607 71.9262C57.6338 71.9262 71.9607 57.5993 71.9607 39.9262C71.9607 22.2531 57.6338 7.92617 39.9607 7.92617C22.2876 7.92617 7.96072 22.2531 7.96072 39.9262C7.96072 57.5993 22.2876 71.9262 39.9607 71.9262Z" fill="#2A2F2E"/>
<path d="M51.4607 53.9262C55.6029 53.9262 58.9607 50.5683 58.9607 46.4262C58.9607 42.284 55.6029 38.9262 51.4607 38.9262C47.3186 38.9262 43.9607 42.284 43.9607 46.4262C43.9607 50.5683 47.3186 53.9262 51.4607 53.9262Z" fill="#00D5FF"/>
<path d="M28.9607 53.9262C33.379 53.9262 36.9607 50.5683 36.9607 46.4262C36.9607 42.284 33.379 38.9262 28.9607 38.9262C24.5424 38.9262 20.9607 42.284 20.9607 46.4262C20.9607 50.5683 24.5424 53.9262 28.9607 53.9262Z" fill="#FC0842"/>
<path d="M39.9607 34.9262C44.379 34.9262 47.9607 31.3445 47.9607 26.9262C47.9607 22.5079 44.379 18.9262 39.9607 18.9262C35.5424 18.9262 31.9607 22.5079 31.9607 26.9262C31.9607 31.3445 35.5424 34.9262 39.9607 34.9262Z" fill="#FEBF02"/>
</svg>
