<svg width="80" height="80" viewBox="0 0 80 80" fill="none" xmlns="http://www.w3.org/2000/svg">
<rect width="80" height="80" fill="white"/>
<path d="M40.1015 8C36.3365 8 33.2564 11.696 33.2564 16.2137C33.2295 17.4886 33.4786 18.7543 33.9867 19.924C34.4947 21.0937 35.2496 22.1397 36.1997 22.9903C37.9793 24.4962 38.253 24.9752 38.7324 26.0021C39.0746 26.7572 39.0062 29.6297 38.9377 31.7519H41.1283C41.0599 29.6283 41.0599 26.7553 41.3336 26.0021C41.8131 24.9752 42.0184 24.4962 43.8664 22.9903C44.8165 22.1397 45.5714 21.0937 46.0794 19.924C46.5874 18.7543 46.8366 17.4886 46.8097 16.2137C46.8777 11.696 43.7975 8 40.1015 8ZM39.967 72C43.7319 72 46.8097 68.3035 46.8097 63.7859C46.8366 62.511 46.5874 61.2454 46.0794 60.0758C45.5714 58.9061 44.8165 57.8602 43.8664 57.0097C42.0868 55.5038 41.8131 55.0243 41.3336 53.9979C40.9915 53.2428 41.0599 50.3698 41.1283 48.2481H38.9406C39.009 50.3717 39.009 53.2447 38.7348 53.9979C38.2558 55.0243 38.0505 55.5038 36.2025 57.0097C34.3545 58.5155 33.2592 60.9794 33.2592 63.7859C33.1223 68.3035 36.2025 72 39.967 72ZM17.3774 17.3774C14.7078 20.047 15.1872 24.8384 18.4043 28.0554C19.2976 28.975 20.3759 29.6946 21.5679 30.1666C22.7599 30.6386 24.0385 30.8522 25.3192 30.7934C27.7147 30.5882 28.1937 30.725 29.2205 31.1356C29.9756 31.4098 31.9576 33.4631 33.4645 35.0374L34.2195 34.2847L34.9746 33.5296C33.4687 32.0921 31.347 30.0374 31.0728 29.2857C30.6622 28.2593 30.5254 27.7114 30.7307 25.3844C30.8213 24.1006 30.6224 22.8128 30.1487 21.6162C29.6749 20.4196 28.9384 19.3447 27.9936 18.4708C24.7699 15.1872 20.047 14.7078 17.3774 17.3774ZM62.6226 62.6226C65.2918 59.953 64.8128 55.2301 61.5957 52.0126C60.7025 51.0933 59.6244 50.374 58.4327 49.9022C57.2409 49.4303 55.9626 49.2167 54.6822 49.2755C52.2867 49.4807 51.8073 49.3439 50.7809 48.9329C50.0258 48.6591 48.0438 46.6059 46.537 45.0315L45.7819 45.7842L45.0292 46.5393C46.5351 47.9768 48.6568 50.0315 48.9305 50.7832C49.3415 51.8096 49.4784 52.3575 49.2731 54.6845C49.1825 55.9683 49.3814 57.2561 49.8551 58.4527C50.3289 59.6493 51.0654 60.7242 52.0102 61.5981C55.2301 64.8812 59.953 65.2903 62.6226 62.6226ZM8 40.034C8 43.7989 11.696 46.8767 16.2137 46.8767C17.4886 46.9036 18.7543 46.6545 19.924 46.1464C21.0937 45.6384 22.1397 44.8835 22.9903 43.9334C24.4962 42.0854 24.9752 41.8801 26.0021 41.4006C26.7572 41.0585 29.6297 41.1269 31.7519 41.1269V38.9391C29.6283 39.0076 26.7553 39.0076 26.0021 38.7339C24.9752 38.2544 24.4962 38.0491 22.9903 36.2011C21.4845 34.3531 19.0201 33.2578 16.2137 33.2578C11.696 33.1893 8 36.2676 8 40.034ZM72 40.034C72 36.2695 68.3035 33.1912 63.7859 33.1912C62.511 33.1644 61.2454 33.4135 60.0758 33.9215C58.9061 34.4296 57.8602 35.1845 57.0097 36.1346C55.5038 37.9826 55.0243 38.1879 53.9979 38.6668C53.2428 39.0095 50.3698 38.941 48.2481 38.8726V41.0628C50.3717 40.9943 53.2447 40.9943 53.9979 41.3365C55.0243 41.8159 55.5038 42.0212 57.0097 43.8692C58.5155 45.7172 60.9794 46.8126 63.7859 46.8126C68.3035 46.8107 72 43.7305 72 40.034ZM17.3774 62.6226C20.047 65.2918 24.8384 64.8128 27.987 61.5957C28.9062 60.7025 29.6255 59.6244 30.0974 58.4327C30.5692 57.2409 30.7828 55.9626 30.7241 54.6822C30.5188 52.2867 30.6556 51.8073 31.0662 50.7809C31.3404 50.0258 33.3937 47.9744 34.968 46.537L34.2129 45.7819L33.4579 45.0292C31.952 46.6035 29.8987 48.6568 29.2139 48.9305C28.1871 49.3415 27.6396 49.4784 25.3126 49.2731C24.0288 49.1824 22.7411 49.3813 21.5444 49.8551C20.3478 50.3288 19.2729 51.0653 18.3991 52.0102C15.1872 55.2301 14.7078 59.953 17.3774 62.6226ZM62.6226 17.3774C59.953 14.7078 55.2301 15.1872 51.9441 18.4043C51.0249 19.2975 50.3056 20.3756 49.8337 21.5673C49.3619 22.7591 49.1483 24.0374 49.207 25.3178C49.3439 27.7133 49.2755 28.1922 48.8644 29.2191C48.5907 29.9742 46.5374 32.0256 44.9631 33.4631L45.7158 34.2181L46.4709 34.9732C47.9083 33.4673 49.963 31.3456 50.7148 31.0714C51.7412 30.6608 52.2891 30.524 54.6161 30.7293C55.8999 30.8199 57.1876 30.621 58.3843 30.1472C59.5809 29.6735 60.6558 28.937 61.5297 27.9922C64.8128 24.7699 65.2903 20.047 62.6226 17.3774Z" fill="#7BD5D5"/>
<path d="M40.034 30.0742C38.0574 30.0742 36.1252 30.6604 34.4818 31.7585C32.8383 32.8566 31.5574 34.4174 30.801 36.2435C30.0446 38.0696 29.8467 40.079 30.2323 42.0176C30.6179 43.9562 31.5697 45.7369 32.9674 47.1346C34.365 48.5322 36.1457 49.484 38.0843 49.8696C40.0229 50.2553 42.0323 50.0574 43.8584 49.3009C45.6845 48.5445 47.2453 47.2636 48.3435 45.6202C49.4416 43.9767 50.0277 42.0445 50.0277 40.068C50.0319 38.7544 49.7763 37.4529 49.2756 36.2385C48.7749 35.0241 48.0389 33.9207 47.1101 32.9919C46.1812 32.063 45.0778 31.3271 43.8634 30.8263C42.649 30.3256 41.3476 30.07 40.034 30.0742ZM40.034 46.5346C38.7347 46.5347 37.4646 46.1495 36.3843 45.4277C35.304 44.706 34.4619 43.6801 33.9646 42.4797C33.4674 41.2794 33.3372 39.9586 33.5906 38.6843C33.844 37.41 34.4697 36.2395 35.3883 35.3207C36.307 34.402 37.4775 33.7763 38.7518 33.5228C40.0261 33.2693 41.3469 33.3993 42.5473 33.8965C43.7476 34.3937 44.7736 35.2357 45.4954 36.3159C46.2173 37.3962 46.6025 38.6663 46.6025 39.9656C46.6205 40.8332 46.4628 41.6955 46.139 42.5006C45.8152 43.3057 45.3319 44.0371 44.7183 44.6507C44.1046 45.2643 43.3733 45.7475 42.5681 46.0712C41.763 46.395 40.9007 46.5526 40.033 46.5346H40.034Z" fill="#7BD5D5"/>
</svg>
